<svg width="25" height="24" viewBox="0 0 25 24" fill="none" xmlns="http://www.w3.org/2000/svg">
    <path d="M3.125 9.94501C3.125 8.87081 3.99581 8 5.07001 8V8C5.79517 8 6.4601 7.5966 6.79508 6.95345L7.63889 5.33333C7.76839 5.08469 7.83314 4.96037 7.90796 4.85343C8.22979 4.39346 8.73013 4.08992 9.28675 4.01696C9.41616 4 9.55633 4 9.83667 4H15.1633C15.4437 4 15.5838 4 15.7133 4.01696C16.2699 4.08992 16.7702 4.39346 17.092 4.85343C17.1669 4.96037 17.2316 5.08469 17.3611 5.33333L18.2049 6.95345C18.5399 7.5966 19.2048 8 19.93 8V8C21.0042 8 21.875 8.87081 21.875 9.94501V14.8571C21.875 16.8619 21.875 17.8643 21.4152 18.5961C21.1754 18.9777 20.8527 19.3004 20.4711 19.5402C19.7393 20 18.7369 20 16.7321 20H8.26786C6.2631 20 5.26071 20 4.5289 19.5402C4.14729 19.3004 3.82461 18.9777 3.58483 18.5961C3.125 17.8643 3.125 16.8619 3.125 14.8571V9.94501Z" stroke="#FEFFFF" stroke-width="2"/>
    <path d="M12.499 10C14.2866 10.0002 15.665 11.3813 15.665 13C15.665 14.6187 14.2866 15.9998 12.499 16C10.7113 16 9.33203 14.6188 9.33203 13C9.33203 11.3812 10.7113 10 12.499 10Z" stroke="#FEFFFF" stroke-width="2"/>
</svg>
