<svg width="20" height="20" viewBox="0 0 20 20" fill="none" xmlns="http://www.w3.org/2000/svg">
    <path d="M9.19167 2.15858C9.41757 1.96729 9.70399 1.8623 10 1.8623C10.296 1.8623 10.5824 1.96729 10.8083 2.15858L17.0583 7.46108C17.1967 7.57841 17.3079 7.72446 17.3842 7.88909C17.4605 8.05372 17.5 8.23298 17.5 8.41441V16.2502C17.5 16.5818 17.3683 16.8997 17.1339 17.1341C16.8995 17.3685 16.5815 17.5002 16.25 17.5002H11.4583C11.2926 17.5002 11.1336 17.4344 11.0164 17.3172C10.8992 17.2 10.8333 17.041 10.8333 16.8752V11.6669H9.16667V16.8752C9.16667 17.041 9.10082 17.2 8.98361 17.3172C8.8664 17.4344 8.70743 17.5002 8.54167 17.5002H3.75C3.41848 17.5002 3.10054 17.3685 2.86612 17.1341C2.6317 16.8997 2.5 16.5818 2.5 16.2502V8.41441C2.5 8.04775 2.66167 7.69858 2.94167 7.46108L9.19167 2.15858ZM10 3.11191L3.75 8.41441V16.2502H7.91667V11.0419C7.91667 10.8762 7.98251 10.7172 8.09973 10.6C8.21694 10.4828 8.37591 10.4169 8.54167 10.4169H11.4583C11.6241 10.4169 11.7831 10.4828 11.9003 10.6C12.0175 10.7172 12.0833 10.8762 12.0833 11.0419V16.2502H16.25V8.41441L10 3.11191Z" fill="white"/>
</svg>
