<svg width="102" height="44" viewBox="0 0 102 44" fill="none" xmlns="http://www.w3.org/2000/svg">
<path fill-rule="evenodd" clip-rule="evenodd" d="M14.5075 0.0299975C14.4474 0.0410874 14.3769 0.0676948 14.3508 0.0891733C14.3246 0.110652 14.2263 0.155757 14.1323 0.189377C14.0382 0.222998 13.856 0.321887 13.7275 0.409116C13.5989 0.496389 13.463 0.567751 13.4255 0.567751C13.3351 0.567751 12.5593 1.36022 12.5192 1.49348C12.502 1.5509 12.4227 1.66688 12.3431 1.75126C12.191 1.91257 11.973 2.2916 11.973 2.39483C11.973 2.49959 11.7683 2.8642 11.6453 2.97861C11.4796 3.13268 11.3693 3.3718 11.4027 3.50461C11.4275 3.60302 11.4546 3.61521 11.6689 3.62428C12.1279 3.64365 12.8429 3.73115 13.0476 3.79295C13.337 3.88031 14.7364 3.88005 14.9976 3.7926C15.1006 3.75811 15.2635 3.71712 15.3596 3.70147C15.4557 3.68587 15.6676 3.6334 15.8303 3.58492C16.0712 3.51312 16.1387 3.47248 16.1935 3.36606C16.3017 3.15618 16.2785 3.14211 15.5217 2.95853C15.3706 2.92184 15.1444 2.84329 15.0192 2.78394C14.6758 2.62114 14.2575 2.50012 13.9287 2.46843C13.5978 2.43656 13.4939 2.36542 13.6003 2.24356C13.6368 2.20183 13.7003 2.1011 13.7414 2.01974C13.7826 1.93839 13.898 1.76866 13.998 1.64264C14.0979 1.51658 14.2715 1.2644 14.3836 1.08218C14.5441 0.821197 14.6445 0.71284 14.8564 0.571652C15.0044 0.47307 15.152 0.392415 15.1846 0.392415C15.2501 0.392415 15.5126 0.184468 15.5126 0.132569C15.5126 0.0223271 14.8922 -0.0409694 14.5075 0.0299975ZM28.6768 0.0400356C28.6228 0.0635305 28.5785 0.100044 28.5785 0.121216C28.5785 0.187273 28.7411 0.311148 28.9634 0.414464C29.2718 0.557757 29.7287 1.03103 29.8831 1.36715C29.9525 1.51811 30.0905 1.71966 30.1897 1.81495C30.289 1.91025 30.3701 2.01926 30.3701 2.05722C30.3701 2.09518 30.4019 2.17176 30.4408 2.22739C30.5397 2.36906 30.4808 2.40873 30.1024 2.45528C29.6616 2.5095 29.3718 2.57968 29.1903 2.67611C28.9894 2.7828 28.7054 2.88331 28.3819 2.96222C27.8969 3.08048 27.8356 3.10888 27.8356 3.21544C27.8356 3.42501 28.2394 3.6348 28.7581 3.69476C28.8929 3.71037 29.0741 3.75285 29.1609 3.78918C29.2803 3.83924 29.4914 3.8548 30.0301 3.85336C30.7007 3.85156 30.8404 3.83753 31.2638 3.72935C31.3587 3.70507 31.7095 3.67131 32.0432 3.65431C32.6055 3.62568 32.6525 3.61665 32.6847 3.53113C32.7251 3.42357 32.6628 3.28768 32.4732 3.06943C32.4013 2.98681 32.3093 2.829 32.2688 2.71876C32.1747 2.46308 32.0208 2.19232 31.7825 1.86304C31.6787 1.71957 31.5937 1.56944 31.5937 1.52942C31.5937 1.48936 31.4708 1.3383 31.3206 1.1937C31.1704 1.04909 31.0104 0.876428 30.9652 0.809976C30.9199 0.743524 30.7921 0.649018 30.6811 0.599968C30.5702 0.550918 30.4204 0.466933 30.3483 0.413368C30.2762 0.359759 30.0824 0.252235 29.9177 0.17443C29.6603 0.0527909 29.5592 0.0304797 29.1967 0.0151818C28.9648 0.00536299 28.7309 0.0165845 28.6768 0.0400356ZM25.302 0.0898308C25.0657 0.136251 24.6444 0.34319 24.5862 0.441378C24.5248 0.544957 24.9026 1.02358 25.1403 1.14329C25.2407 1.19387 25.3819 1.27952 25.454 1.33361C25.9056 1.67245 26.672 1.8669 27.3768 1.8214C27.6171 1.80588 27.9318 1.75806 28.076 1.7151C28.3133 1.6444 28.3393 1.62476 28.3508 1.50785C28.3616 1.39787 28.3084 1.32165 27.9934 0.99513C27.7899 0.784202 27.5939 0.611584 27.558 0.611584C27.4866 0.611584 26.9274 0.393993 26.7199 0.285461C26.6486 0.248158 26.5607 0.217256 26.5247 0.216817C26.4886 0.216379 26.3018 0.17706 26.1095 0.129413C25.7334 0.0362221 25.6064 0.0299977 25.302 0.0898308ZM17.7193 0.174299C17.5511 0.218045 17.2758 0.307027 17.1076 0.372033C16.9393 0.436994 16.7113 0.523303 16.6007 0.563806C16.3705 0.648186 15.7578 1.2168 15.6915 1.40761C15.6289 1.58763 15.7123 1.65522 16.1162 1.75192C16.5446 1.85453 17.0203 1.86335 17.4267 1.77616C17.5876 1.74166 17.7911 1.70169 17.8788 1.68735C17.9665 1.67302 18.0844 1.62528 18.141 1.58132C18.1975 1.53735 18.2929 1.48344 18.353 1.46152C18.4555 1.42409 18.7146 1.2733 19.0232 1.07127C19.1982 0.956644 19.3985 0.664272 19.4003 0.520585C19.405 0.15637 18.5027 -0.0295285 17.7193 0.174299ZM33.0467 1.91178C32.9577 1.94781 32.9844 2.14704 33.0904 2.23808C33.1445 2.28454 33.2513 2.35025 33.3279 2.38413C33.4044 2.41797 33.4999 2.50954 33.5401 2.58752C33.5803 2.66555 33.6974 2.81997 33.8002 2.9307C33.9448 3.08626 34.0132 3.21474 34.1015 3.49593C34.1643 3.69608 34.2156 3.88202 34.2156 3.9092C34.2156 3.93638 34.3263 4.18088 34.4615 4.45256C34.7527 5.03748 34.751 5.10485 34.4478 5.00973C34.1695 4.92246 32.8328 4.95446 32.4546 5.05747C32.3153 5.09539 32.0596 5.12673 31.8865 5.12708C31.5092 5.12778 31.3752 5.15868 31.3752 5.24495C31.3752 5.32372 31.8924 5.87164 31.9667 5.87164C31.996 5.87164 32.0427 5.89903 32.0704 5.93257C32.0981 5.96606 32.2431 6.03786 32.3926 6.09212C32.542 6.14639 32.8828 6.27596 33.1499 6.38007C33.7668 6.62054 34.0114 6.65876 35.2426 6.70702C35.7954 6.72872 36.3415 6.75875 36.4563 6.77378C36.7874 6.81722 36.8103 6.76865 36.6598 6.3407C36.5903 6.14297 36.533 5.9277 36.5326 5.8623C36.5321 5.7969 36.4924 5.64331 36.4443 5.52097C36.3962 5.39863 36.3569 5.26476 36.3568 5.22347C36.3568 5.18218 36.2981 5.02394 36.2264 4.87183C36.1546 4.71973 36.0356 4.41399 35.9618 4.19241C35.8685 3.91218 35.7831 3.74281 35.6816 3.63612C35.6012 3.55174 35.4753 3.38319 35.4017 3.26156C35.2416 2.9968 34.6695 2.46873 34.4684 2.40005C34.3895 2.37309 34.2462 2.29752 34.1501 2.23212C33.7845 1.98336 33.2519 1.82876 33.0467 1.91178ZM10.4927 2.01567C10.3396 2.06099 10.1814 2.12793 10.1412 2.16444C10.101 2.20095 9.94113 2.28941 9.786 2.36099C9.63087 2.43257 9.41548 2.57275 9.30733 2.67247C9.19917 2.7722 9.06716 2.88366 9.01398 2.92018C8.9608 2.95669 8.8439 3.09744 8.75423 3.23298C8.66456 3.36851 8.52901 3.54915 8.45302 3.63445C8.37702 3.71975 8.27206 3.90789 8.21975 4.05254C8.11933 4.33044 8.08835 4.4029 7.86894 4.87341C7.78967 5.0434 7.69598 5.359 7.64769 5.61859C7.57471 6.01103 7.46333 6.37134 7.33634 6.62562C7.27782 6.74279 7.41233 6.84974 7.57734 6.81731C7.65158 6.80271 8.12527 6.77264 8.63 6.75042C9.45542 6.71412 10.0005 6.66485 10.3779 6.5924C10.5657 6.55632 11.1487 6.35105 11.2519 6.2846C11.3 6.25369 11.4671 6.18514 11.6234 6.13232C12.1396 5.95773 12.6878 5.51965 12.6629 5.3018C12.6505 5.1937 12.6431 5.19178 12.1259 5.16065C11.8375 5.14325 11.4835 5.09447 11.3393 5.05221C10.9637 4.9421 9.87384 4.94004 9.66255 5.04905C9.3571 5.20664 9.36479 5.05081 9.69638 4.36608C9.83827 4.07309 9.99755 3.67136 10.0503 3.47336C10.1046 3.26975 10.1878 3.06978 10.2418 3.01311C10.2943 2.95796 10.4213 2.81016 10.5239 2.68466C10.6266 2.55912 10.7913 2.41118 10.8899 2.35591C11.145 2.21283 11.1918 2.11885 11.0614 2.0115C10.9362 1.90854 10.8529 1.90915 10.4927 2.01567ZM6.10469 5.21702C5.96441 5.25647 5.28704 5.69358 5.28704 5.7447C5.28704 5.76341 5.17194 5.92297 5.03127 6.09918C4.69335 6.52253 4.56151 6.73928 4.50024 6.97226C4.4724 7.07812 4.42525 7.20418 4.39545 7.2524C4.06417 7.78818 3.90572 9.3331 4.0813 10.3156C4.11958 10.5297 4.15087 10.9304 4.15087 11.2061C4.15087 11.9299 4.20812 11.9934 4.61744 11.7234C5.21716 11.3279 5.33301 11.2642 5.68347 11.1366C5.88951 11.0616 6.10455 11.0002 6.16136 11.0002C6.21817 11.0002 6.30522 10.9635 6.35486 10.9185C6.43601 10.845 6.69204 10.694 7.12068 10.4667C7.20389 10.4226 7.29508 10.3865 7.32331 10.3865C7.35154 10.3865 7.4784 10.2888 7.60522 10.1694C7.73207 10.0499 7.89232 9.92477 7.9614 9.8912C8.09102 9.82825 8.87034 9.0861 8.87034 9.02565C8.87034 9.00698 8.98828 8.8469 9.13249 8.66994C9.3588 8.39221 9.39464 8.32348 9.39468 8.16708C9.39472 8.02655 9.37628 7.98105 9.31253 7.96431C9.23907 7.94506 8.53722 8.10852 8.44323 8.16677C8.42265 8.17957 8.26939 8.22841 8.10273 8.27535C7.93606 8.32225 7.59324 8.41965 7.34088 8.4918C7.08852 8.56391 6.81029 8.63562 6.72254 8.65114C6.63484 8.66666 6.53905 8.70838 6.50964 8.74389C6.48023 8.77944 6.43811 8.8085 6.416 8.8085C6.39384 8.8085 6.27157 8.8874 6.14423 8.98384C6.01689 9.08027 5.89235 9.15917 5.86745 9.15917C5.74771 9.15917 5.73805 9.01193 5.77148 7.69819L5.80583 6.3468L5.98731 5.99065C6.08712 5.79475 6.20633 5.58659 6.2523 5.52798C6.40953 5.32749 6.32738 5.15439 6.10469 5.21702ZM37.7552 5.32687C37.7552 5.3889 37.8536 5.6519 37.9737 5.91126C38.0939 6.17067 38.1926 6.42074 38.193 6.46699C38.1934 6.51323 38.2221 6.68519 38.2567 6.84909C38.3081 7.09232 38.3108 7.24004 38.2717 7.65256C38.2307 8.08524 38.2347 8.22012 38.2994 8.5896C38.389 9.10118 38.3683 9.22339 38.1991 9.18214C38.1352 9.16658 38.0142 9.0957 37.93 9.02465C37.6907 8.82244 37.3955 8.69199 36.7991 8.52485C36.4958 8.43986 36.0805 8.31831 35.8762 8.25479C35.391 8.10392 34.9113 7.97737 34.8212 7.9764C34.7209 7.97535 34.6882 8.08893 34.7226 8.3191C34.7465 8.47887 34.8218 8.60301 35.1235 8.97994C35.5539 9.51791 35.6049 9.57016 35.898 9.7742C36.0181 9.85784 36.2492 10.0307 36.4116 10.1584C36.574 10.286 36.789 10.4196 36.8894 10.4551C36.9898 10.4907 37.1323 10.5659 37.206 10.6223C37.4069 10.776 37.8488 10.9896 38.0889 11.0491C38.4074 11.128 38.982 11.3902 39.1411 11.5294C39.2655 11.6382 39.637 11.833 39.7202 11.833C39.8048 11.833 39.8528 11.5668 39.8531 11.0968C39.8532 10.8146 39.8827 10.3882 39.9186 10.1492C40.0199 9.47473 40.0028 8.74946 39.8719 8.17291C39.8117 7.90772 39.7261 7.53114 39.6818 7.33608C39.5964 6.96064 39.547 6.8394 39.4452 6.75454C39.4106 6.72578 39.3063 6.57061 39.2133 6.40974C39.0292 6.09107 38.4804 5.5062 38.1971 5.32678C38.0992 5.26485 37.9598 5.21413 37.8872 5.21413C37.7746 5.21413 37.7552 5.23066 37.7552 5.32687ZM19.7513 7.47797C19.6672 7.48586 19.3526 7.51356 19.0522 7.53956C18.7517 7.56559 18.4453 7.60575 18.3712 7.62885C18.2971 7.6519 18.0906 7.69876 17.9124 7.73291C17.7341 7.7671 17.5096 7.8154 17.4135 7.84026C17.3173 7.86511 17.042 7.92713 16.8017 7.97803C16.3659 8.07034 16.2684 8.10536 15.7311 8.36275C15.5748 8.43758 15.3487 8.53691 15.2285 8.58346C14.9704 8.68349 14.4785 8.95727 14.3545 9.06988C14.3065 9.11354 14.1818 9.19222 14.0776 9.24473C13.9734 9.29725 13.8299 9.40661 13.7589 9.48779C13.6878 9.56893 13.5223 9.70683 13.3911 9.79419C13.2599 9.88155 13.1231 10.0101 13.0871 10.0799C13.0512 10.1497 12.9336 10.2807 12.8259 10.371C12.7181 10.4614 12.5882 10.6251 12.5371 10.7349C12.4861 10.8446 12.4085 10.9684 12.3648 11.0099C12.1976 11.1685 12.0655 11.3838 11.954 11.6796C11.8904 11.8484 11.7826 12.1048 11.7146 12.2495C11.5334 12.6346 11.42 12.9602 11.3637 13.2576C11.2759 13.721 11.2239 14.8566 11.2544 15.6455C11.3003 16.8345 11.3729 17.2042 11.6889 17.8602C11.8167 18.1254 11.9459 18.4264 11.976 18.5292C12.0062 18.6319 12.0571 18.7379 12.0893 18.7646C12.1214 18.7914 12.1477 18.84 12.1477 18.8727C12.1477 18.9053 12.2191 18.9966 12.3062 19.0755C12.3934 19.1545 12.4994 19.2995 12.5419 19.3979C12.5843 19.4963 12.6816 19.6343 12.7581 19.7047C13.004 19.9308 13.0856 20.0168 13.1669 20.1356C13.2106 20.1996 13.3286 20.3029 13.429 20.3653C13.5295 20.4277 13.6805 20.5552 13.7646 20.6487C13.8487 20.7422 14.0257 20.874 14.1579 20.9415C14.2901 21.009 14.5733 21.167 14.7873 21.2925C15.0013 21.4181 15.257 21.5424 15.3554 21.5687C15.4539 21.5951 15.5866 21.6443 15.6504 21.6781C15.7142 21.7118 15.7936 21.7395 15.8269 21.7395C15.8601 21.7395 15.9653 21.7799 16.0605 21.8292C16.3771 21.9934 16.7419 22.0942 17.4087 22.2015C17.7718 22.2599 18.2951 22.347 18.5715 22.3951C19.9257 22.6303 20.6751 22.6911 22.9128 22.7475C25.7847 22.8197 26.0446 22.8468 27.0053 23.1725C27.2577 23.258 27.5723 23.3532 27.7045 23.384C28.0306 23.4599 28.3312 23.6017 28.5214 23.7691C28.6084 23.8457 28.7793 23.9584 28.9011 24.0195C29.0294 24.0838 29.1648 24.1946 29.2228 24.2829C29.2779 24.3667 29.4072 24.524 29.5102 24.6325C29.7381 24.8724 29.768 24.9475 29.9092 25.6351C30.0248 26.1983 30.0416 26.5169 29.9751 26.8899C29.797 27.8898 29.7124 28.1375 29.4738 28.3584C29.4087 28.4186 29.2918 28.5666 29.214 28.6871C29.1122 28.8447 29.0061 28.941 28.8364 29.0301C28.7066 29.0981 28.4455 29.2604 28.2562 29.3907C28.0669 29.521 27.8408 29.6401 27.7537 29.6554C27.6665 29.6706 27.4759 29.7598 27.33 29.8536C27.1842 29.9473 27.0367 30.0242 27.0023 30.0244C26.9679 30.0245 26.8808 30.0638 26.8087 30.1117C26.7366 30.1596 26.6422 30.1989 26.5989 30.1991C26.5557 30.1993 26.4664 30.2274 26.4005 30.2615C26.1512 30.3908 24.6861 30.5905 23.7498 30.6227C23.2101 30.6413 22.8477 30.6257 22.1607 30.5541C21.6712 30.5031 21.2578 30.4533 21.2419 30.4435C21.226 30.4336 21.0267 30.4043 20.799 30.3782C20.4144 30.3342 19.2942 30.0031 19.1644 29.895C19.1058 29.8463 18.811 29.7378 18.4556 29.6343C18.3077 29.5912 18.1111 29.4982 18.0186 29.4274C17.9261 29.3567 17.6765 29.2105 17.4639 29.1026C17.2513 28.9946 17.0055 28.8354 16.9176 28.7487C16.8298 28.662 16.6695 28.5359 16.5613 28.4683C16.3939 28.3638 15.9533 27.9892 15.6734 27.7134C15.2702 27.3162 14.9008 26.9033 14.9008 26.85C14.9008 26.8141 14.8132 26.7113 14.7062 26.6216C14.5992 26.5319 14.4665 26.3687 14.4113 26.259C14.356 26.1494 14.242 25.9665 14.1579 25.8527C13.9334 25.549 13.7826 25.2894 13.7238 25.1059C13.6952 25.0167 13.6281 24.8786 13.5747 24.799C13.3443 24.4558 13.2618 24.2585 13.1108 23.6901C12.969 23.156 12.8623 22.9047 12.7528 22.8469C12.6964 22.8171 12.5084 22.7925 12.335 22.7921C12.0676 22.7916 12.0129 22.8044 11.9745 22.8763C11.9443 22.9329 11.9293 24.2437 11.9293 26.8198C11.9293 31.2391 11.8762 30.7692 12.3755 30.7692C12.6532 30.7692 12.8469 30.6919 12.8469 30.5811C12.8469 30.5526 12.8946 30.4305 12.9529 30.3096C13.0112 30.1887 13.0697 30.0387 13.083 29.9763C13.1327 29.7435 13.3869 29.5399 13.814 29.3907C14.0866 29.2955 14.1777 29.3043 14.695 29.4761C14.9491 29.5605 15.1895 29.6295 15.2293 29.6295C15.3067 29.6295 15.8067 29.8425 16.3278 30.0973C16.6107 30.2357 16.7848 30.2958 17.5664 30.5246C17.6746 30.5563 17.9154 30.6543 18.1016 30.7424C18.3073 30.8397 18.6161 30.9375 18.8882 30.9914C19.1346 31.0403 19.464 31.1172 19.6202 31.1622C21.1912 31.6152 21.1379 31.6084 23.1161 31.6072C24.0174 31.6068 24.8925 31.5864 25.0607 31.5621C25.6831 31.4721 25.9847 31.4131 26.2299 31.3333C26.3682 31.2882 26.5157 31.2514 26.5576 31.2514C26.5996 31.2514 26.7519 31.2135 26.8961 31.1672C27.0403 31.1209 27.3353 31.0415 27.5516 30.9907C27.908 30.907 28.3387 30.7339 28.4959 30.6112C28.5293 30.5852 28.6943 30.5097 28.8625 30.4436C29.0308 30.3774 29.1979 30.2992 29.234 30.2698C29.27 30.2404 29.3487 30.1948 29.4088 30.1684C29.4689 30.1421 29.6241 30.0287 29.7537 29.9166C29.8833 29.8044 30.0603 29.6758 30.147 29.6309C30.2337 29.586 30.3819 29.4667 30.4763 29.3658C30.5708 29.2649 30.7218 29.1357 30.8119 29.0786C30.902 29.0216 31.0115 28.9213 31.0553 28.8558C31.0991 28.7903 31.2401 28.627 31.3687 28.4928C31.4974 28.3586 31.6281 28.1995 31.6593 28.1392C31.6905 28.0789 31.7997 27.9344 31.902 27.8179C32.0042 27.7015 32.2035 27.3769 32.3447 27.0966C32.486 26.8163 32.6278 26.5565 32.6598 26.5193C32.7423 26.4235 32.9043 25.8566 32.9066 25.6558C32.9076 25.5631 32.9371 25.4084 32.9719 25.3119C33.0878 24.9916 33.1367 24.3427 33.109 23.4929C33.0945 23.0468 33.0604 22.603 33.0333 22.5066C33.0061 22.4101 32.9648 22.203 32.9413 22.0463C32.852 21.4483 32.7267 20.9823 32.5615 20.6331C32.4672 20.434 32.3291 20.1231 32.2545 19.9423C32.1799 19.7615 32.0106 19.4755 31.8782 19.3067C31.7459 19.1379 31.619 18.9604 31.5963 18.9122C31.5296 18.7704 30.7975 18.0309 30.649 17.9552C30.574 17.917 30.4072 17.7955 30.2783 17.6852C30.0189 17.463 29.6567 17.2447 29.4695 17.1975C29.4025 17.1807 29.2616 17.101 29.1564 17.0204C29.0512 16.9398 28.942 16.8733 28.9138 16.8726C28.8856 16.8718 28.7642 16.8227 28.644 16.7634C28.5239 16.7041 28.3862 16.6553 28.3382 16.6549C28.2901 16.6546 28.0148 16.5841 27.7264 16.4983C26.7469 16.2068 26.3183 16.131 25.3934 16.0854C24.922 16.0622 24.3889 16.0313 24.2086 16.0168C24.0284 16.0022 22.9566 15.9739 21.827 15.9538C19.9539 15.9205 19.7097 15.9074 19.0522 15.8057C18.6556 15.7444 18.2918 15.6848 18.2437 15.6731C17.8739 15.584 17.1415 15.4259 16.8906 15.381C16.5982 15.3286 16.2534 15.2041 16.1321 15.107C16.0583 15.0479 15.6371 14.8706 15.3786 14.7898C15.2688 14.7555 15.0525 14.629 14.8979 14.5087C14.7432 14.3883 14.5644 14.2499 14.5004 14.201C14.3667 14.0989 14.0153 13.5793 13.8798 13.2834C13.7989 13.1068 13.7881 13.0049 13.7911 12.4467C13.7943 11.8572 13.8022 11.7982 13.8998 11.6328C14.0809 11.3257 14.5238 10.7223 14.653 10.6067C14.721 10.5459 14.9188 10.3675 15.0926 10.2103C15.2696 10.0502 15.542 9.85928 15.7119 9.77618C15.8786 9.69456 16.087 9.57147 16.1749 9.50265C16.3458 9.36878 16.8497 9.16044 17.0102 9.15724C17.0638 9.15619 17.1862 9.12586 17.2824 9.08983C17.6864 8.93847 18.4051 8.76695 19.0085 8.67792C19.354 8.62699 21.4791 8.62532 21.7833 8.67582C21.9035 8.69576 22.1788 8.73539 22.3951 8.76388C22.7768 8.81416 22.8701 8.83292 23.3783 8.96161C24.1126 9.1476 24.6112 9.29387 24.7196 9.35511C24.7871 9.3932 24.9799 9.50221 25.1481 9.59733C25.3164 9.6925 25.5622 9.81159 25.6944 9.86205C25.8266 9.9125 26.0136 10.0309 26.1101 10.1253C26.2065 10.2196 26.3766 10.3416 26.4879 10.3964C26.5992 10.4513 26.7983 10.5947 26.9301 10.7153C27.062 10.8358 27.2459 10.9933 27.3389 11.0653C27.6194 11.2825 28.3275 12.0078 28.6232 12.381C28.7761 12.5738 28.9666 12.806 29.0465 12.8969C29.1263 12.9878 29.2231 13.1408 29.2614 13.2368C29.2997 13.3328 29.3865 13.4583 29.4544 13.5156C29.5658 13.6096 30.0206 14.3657 30.0206 14.4569C30.0206 14.4774 30.0865 14.581 30.1671 14.6869C30.2477 14.7928 30.3279 14.9288 30.3453 14.9891C30.3627 15.0493 30.4368 15.2705 30.51 15.4806C30.6289 15.8217 30.6577 15.8674 30.7798 15.9076C30.8599 15.9341 30.9977 15.9388 31.113 15.919L31.3097 15.8852L31.3209 12.1862C31.3311 8.79097 31.3261 8.48058 31.2595 8.40676C31.2019 8.34294 31.122 8.32633 30.8727 8.32633C30.5041 8.32633 30.4436 8.37038 30.372 8.69046C30.3145 8.94785 30.1781 9.16167 29.8992 9.43142C29.6302 9.69158 29.5103 9.73791 29.1029 9.73909C28.7623 9.74014 28.7369 9.7319 27.9886 9.37821C27.8444 9.31005 27.6379 9.23106 27.5297 9.20265C27.4216 9.17425 27.3036 9.12524 27.2675 9.09373C27.2315 9.06217 27.1332 9.00558 27.049 8.96792C26.9649 8.93027 26.7879 8.83958 26.6558 8.76633C26.5236 8.69309 26.3858 8.63317 26.3497 8.63317C26.3135 8.63317 26.0874 8.56203 25.8471 8.4751C25.6069 8.38818 25.312 8.2871 25.1918 8.2505C25.0717 8.21394 24.9509 8.16607 24.9234 8.14416C24.8696 8.10111 24.3732 8.00025 23.8809 7.93231C23.7126 7.90908 23.4275 7.8517 23.2472 7.80484C22.2534 7.54635 20.6365 7.39521 19.7513 7.47797ZM2.36791 10.5811C2.27191 10.6681 2.18032 10.7915 2.16432 10.8553C2.14837 10.9191 2.0972 11.02 2.05062 11.0794C2.00403 11.1387 1.96593 11.2161 1.96593 11.2512C1.96593 11.2864 1.9266 11.3653 1.87853 11.4266C1.83046 11.4879 1.79113 11.5606 1.79113 11.5881C1.79113 11.6157 1.75674 11.687 1.71466 11.7465C1.60852 11.897 1.54223 12.1715 1.48201 12.7097C1.37726 13.6463 1.52706 14.6272 1.8774 15.2984C1.92219 15.3841 1.97283 15.532 1.98996 15.6271C2.00709 15.7222 2.04083 15.8381 2.06486 15.8847C2.08894 15.9312 2.13356 16.0693 2.16402 16.1915C2.23896 16.4919 2.47305 17.129 2.53681 17.2061C2.60253 17.2855 2.75177 17.286 2.86403 17.2071C2.91201 17.1734 3.01964 17.0443 3.10315 16.9202C3.1988 16.778 3.33593 16.6474 3.47354 16.5673C3.59371 16.4974 3.77523 16.351 3.87692 16.242C3.97865 16.1329 4.1392 16.0041 4.23377 15.9557C4.32833 15.9073 4.45143 15.8032 4.50736 15.7243C4.62902 15.5525 4.79993 15.3955 4.90363 15.3602C4.9451 15.346 5.04831 15.2223 5.13304 15.0851C5.21773 14.9479 5.35132 14.7919 5.42989 14.7383C5.50947 14.6841 5.63047 14.529 5.70301 14.3883C5.77467 14.2494 5.85407 14.1156 5.87946 14.0911C5.94134 14.0316 6.16101 13.6839 6.16101 13.6456C6.16101 13.6289 6.19047 13.5826 6.22647 13.5426C6.26248 13.5028 6.31011 13.3829 6.3324 13.2762C6.35464 13.1696 6.40297 13.0034 6.43981 12.907C6.50934 12.7249 6.53001 12.4607 6.48408 12.3407C6.42465 12.1853 6.08795 12.3198 5.72363 12.6443C5.60206 12.7526 5.47573 12.8412 5.44287 12.8412C5.28398 12.8412 4.79228 13.1238 4.51235 13.3761C4.41075 13.4676 4.29726 13.5426 4.26016 13.5426C4.2231 13.5426 4.06041 13.6771 3.89868 13.8416C3.73695 14.0061 3.54818 14.1776 3.47918 14.2227C3.35647 14.3029 3.35236 14.3029 3.29346 14.2221C3.26029 14.1766 3.23319 14.057 3.23319 13.9562C3.23319 13.7834 3.08178 13.2408 2.95265 12.9508C2.74311 12.4802 2.70129 12.2583 2.69666 11.5919C2.69303 11.0683 2.70732 10.8949 2.76684 10.7402C2.84782 10.5299 2.83488 10.4954 2.65838 10.4517C2.56465 10.4285 2.50897 10.4533 2.36791 10.5811ZM41.2399 10.4779C41.1836 10.5108 41.1739 10.5428 41.2037 10.5987C41.226 10.6404 41.2865 10.8501 41.3382 11.0646C41.4295 11.4435 41.4301 11.4651 41.36 11.8301C41.3202 12.0366 41.2184 12.4121 41.1337 12.6645C40.9866 13.1025 40.9516 13.268 40.8608 13.9541C40.837 14.1337 40.7913 14.2846 40.748 14.3266C40.6806 14.392 40.6486 14.3691 40.3186 14.0187C40.1225 13.8104 39.9208 13.619 39.8704 13.5934C39.82 13.5677 39.6105 13.4208 39.4048 13.267C39.1773 13.0968 38.9361 12.9575 38.7887 12.9109C38.6546 12.8686 38.4627 12.7619 38.3585 12.6716C38.094 12.4425 37.7427 12.2275 37.6328 12.2275C37.5101 12.2275 37.4438 12.3608 37.4765 12.5417C37.5065 12.7078 37.8045 13.5099 37.9455 13.8039C37.9971 13.9115 38.0922 14.047 38.157 14.1049C38.2218 14.1628 38.3165 14.3016 38.3675 14.4134C38.4186 14.5251 38.5683 14.725 38.7002 14.8576C38.8321 14.9902 39.1405 15.3037 39.3855 15.5543C39.6305 15.8049 39.8932 16.0363 39.9692 16.0684C40.0453 16.1005 40.1808 16.2165 40.2703 16.326C40.3598 16.4356 40.5215 16.5695 40.6297 16.6236C40.7482 16.6829 40.8567 16.7786 40.9024 16.8642C41.0301 17.1029 41.1798 17.264 41.3001 17.2921C41.3968 17.3148 41.4292 17.2954 41.5077 17.168C41.5589 17.0849 41.6007 16.9823 41.6007 16.94C41.6007 16.8976 41.6517 16.7422 41.7141 16.5945C41.7765 16.4468 41.8733 16.2175 41.9293 16.0849C41.9853 15.9523 42.0743 15.6762 42.127 15.4712C42.1797 15.2663 42.2499 15.0296 42.283 14.9452C42.5778 14.1939 42.687 13.3812 42.5816 12.7236C42.5444 12.4919 42.4879 12.2509 42.4559 12.1882C42.424 12.1254 42.3844 12.0114 42.3679 11.9347C42.3515 11.858 42.3118 11.7735 42.2798 11.7468C42.2478 11.7202 42.2089 11.6303 42.1934 11.5471C42.1517 11.3246 42.039 11.0973 41.831 10.8171C41.5602 10.4521 41.4209 10.3721 41.2399 10.4779ZM0.55909 16.5478C0.38364 16.7263 0.349685 16.7941 0.267488 17.1297C0.14854 17.6154 0.103836 18.5338 0.168423 19.1655C0.231043 19.7783 0.378221 20.2318 0.612534 20.534C0.64994 20.5823 0.738125 20.7499 0.808523 20.9066C0.949365 21.2201 1.13224 21.5142 1.24442 21.6076C1.28423 21.6407 1.35751 21.7481 1.4072 21.8461C1.45693 21.9442 1.58592 22.123 1.69386 22.2436C1.86276 22.4321 2.18163 23.0028 2.18582 23.124C2.18936 23.2278 2.40541 23.4051 2.52842 23.4051C2.6454 23.4051 2.66528 23.3835 2.7314 23.1837C2.77174 23.0619 2.88177 22.873 2.9759 22.7639C3.07002 22.6548 3.17896 22.503 3.21794 22.4265C3.25692 22.35 3.35004 22.2149 3.42486 22.1264C3.69527 21.8064 3.88946 21.5257 3.96991 21.3386C4.01501 21.2336 4.13383 21.0491 4.23394 20.9285C4.34354 20.7966 4.44391 20.6136 4.48617 20.4688C4.5248 20.3365 4.57204 20.1984 4.59118 20.162C4.61027 20.1255 4.65371 20.0365 4.68771 19.9642C4.72166 19.8919 4.77952 19.7735 4.81627 19.7012C4.99618 19.347 5.03472 19.2216 5.11334 18.7352C5.20554 18.1644 5.2263 17.4442 5.15441 17.3094C5.04739 17.1088 4.79997 17.2655 4.51921 17.7117C4.45903 17.8073 4.36491 17.9026 4.31006 17.9236C4.25518 17.9445 4.15266 18.0334 4.08226 18.1212C3.9142 18.3306 3.79424 18.4511 3.62841 18.577C3.55368 18.6338 3.41498 18.7947 3.32024 18.9346C3.2255 19.0746 3.12989 19.1958 3.10774 19.204C3.02903 19.2333 2.71663 19.7527 2.66231 19.9445C2.61022 20.1284 2.52055 20.2491 2.43604 20.2491C2.41537 20.2491 2.368 20.1752 2.33077 20.0847C2.29358 19.9944 2.23874 19.8908 2.20889 19.8546C2.17909 19.8185 2.10878 19.6628 2.05267 19.5087C1.99656 19.3546 1.87517 19.1411 1.78288 19.0341C1.59969 18.8218 1.51111 18.668 1.4155 18.3962C1.3812 18.2987 1.29489 18.124 1.22366 18.0079C1.15248 17.8918 1.08112 17.742 1.06508 17.6751C1.04908 17.6081 1.0056 17.4942 0.968417 17.4218C0.92686 17.3409 0.891376 17.1147 0.876256 16.8336C0.861923 16.5683 0.831945 16.3703 0.804677 16.3613C0.778851 16.3527 0.668337 16.4367 0.55909 16.5478ZM43.1467 16.4005C43.1289 16.4294 43.1111 16.6316 43.1073 16.8498C43.1029 17.0947 43.0747 17.3052 43.0335 17.3999C42.9968 17.4843 42.9423 17.6224 42.9124 17.7068C42.7175 18.2565 42.6409 18.4215 42.4443 18.7149C42.3231 18.8958 42.172 19.162 42.1084 19.3067C42.0448 19.4513 41.9783 19.5921 41.9606 19.6194C41.7692 19.9151 41.5854 20.1615 41.5562 20.1615C41.5363 20.1615 41.4981 20.0945 41.4712 20.0127C41.4443 19.9308 41.373 19.8076 41.3128 19.7387C41.2525 19.6699 41.1151 19.4817 41.0073 19.3205C40.8042 19.0169 40.3257 18.479 39.9839 18.1701C39.7463 17.9553 39.5014 17.7082 39.2515 17.431C39.1491 17.3175 39.0366 17.2246 39.0014 17.2246C38.9662 17.2246 38.9047 17.2878 38.8649 17.3651C38.7515 17.5851 38.8173 18.1633 39.0931 19.3686C39.1673 19.6928 39.3204 20.0456 39.5108 20.3313C39.5811 20.4367 39.6507 20.5847 39.6654 20.66C39.6925 20.7988 39.7867 20.9611 40.0247 21.2792C40.0968 21.3756 40.2138 21.563 40.2848 21.6956C40.3557 21.8282 40.5234 22.0446 40.6576 22.1763C40.7918 22.3081 40.9019 22.4363 40.9023 22.4612C40.9028 22.4862 40.9618 22.5934 41.0336 22.6996C41.1053 22.8058 41.2059 23.008 41.2571 23.1489C41.3392 23.3749 41.3642 23.4051 41.4681 23.4051C41.5574 23.4051 41.6195 23.3582 41.7247 23.2113C41.9936 22.8357 42.1688 22.5517 42.1688 22.4915C42.1688 22.458 42.2792 22.3111 42.4141 22.1649C42.5489 22.0188 42.6962 21.8189 42.7413 21.7207C42.8174 21.555 43.0604 21.1906 43.1963 21.0381C43.2286 21.002 43.2878 20.8737 43.3279 20.7532C43.368 20.6327 43.495 20.3368 43.6101 20.0957C43.9208 19.4449 44.0095 18.8166 43.9192 17.9054C43.842 17.1262 43.7404 16.8517 43.3713 16.4246C43.2945 16.3358 43.1933 16.3249 43.1467 16.4005ZM4.69575 22.4873C4.65773 22.561 4.59 22.7895 4.54521 22.995C4.50046 23.2004 4.43565 23.4014 4.40118 23.4416C4.27825 23.585 4.01326 24.1344 3.89025 24.501C3.82147 24.7059 3.69553 25.0539 3.61036 25.2743C3.49325 25.5775 3.44824 25.7723 3.42551 26.0743C3.4086 26.2985 3.37578 26.4735 3.35061 26.4735C3.32592 26.4735 3.17512 26.3503 3.01544 26.1996C2.67162 25.8751 2.07784 25.3792 1.89737 25.2658C1.82692 25.2215 1.64833 25.0757 1.50054 24.9417C1.3527 24.8078 1.17336 24.6545 1.10192 24.6009C1.03051 24.5474 0.936998 24.4291 0.894085 24.3379C0.851217 24.2468 0.768364 24.096 0.709982 24.0029C0.651644 23.9097 0.576875 23.7567 0.543883 23.6629C0.46588 23.4412 0.344879 23.2768 0.258486 23.275C0.220294 23.2743 0.147491 23.3586 0.0946158 23.4648C-0.0110479 23.677 -0.0303626 24.066 0.0475524 24.4133C0.0718926 24.5218 0.120704 24.7876 0.1561 25.0039C0.265347 25.6723 0.337625 25.8481 0.744199 26.4347C0.787898 26.4978 0.852222 26.6179 0.887093 26.7016C1.02378 27.0298 2.21619 28.0947 2.77436 28.387C2.89453 28.4499 3.08134 28.5746 3.1895 28.6641C3.29765 28.7536 3.48446 28.8828 3.60463 28.9511C3.72481 29.0195 3.92433 29.1656 4.048 29.2758C4.37902 29.5707 4.40026 29.5854 4.53236 29.6113C4.74915 29.6537 4.82829 29.5477 4.81828 29.2281C4.80841 28.9123 4.87583 28.5145 4.96174 28.382C5.01877 28.2941 5.11889 27.879 5.20257 27.3836C5.22595 27.2453 5.26392 27.0824 5.28699 27.0216C5.31007 26.9607 5.38029 26.6596 5.44304 26.3525C5.5765 25.6991 5.62247 24.8893 5.55308 24.4133C5.46502 23.8093 5.38593 23.4285 5.31431 23.2641C5.27528 23.1745 5.24334 23.0685 5.24334 23.0285C5.24334 22.8762 5.0172 22.4514 4.91001 22.4024C4.76707 22.3371 4.77476 22.334 4.69575 22.4873ZM39.0811 22.4956C38.5923 23.0449 38.3727 24.2642 38.4957 25.7456C38.546 26.3518 38.5861 26.5728 38.7392 27.0872C39.0719 28.2049 39.1516 28.5853 39.1726 29.1574C39.1942 29.7454 39.3286 29.7721 39.9354 29.309C40.1663 29.1328 40.4329 28.9414 40.5278 28.8838C40.6226 28.8261 40.7646 28.7222 40.8434 28.6528C40.9221 28.5835 41.0903 28.4732 41.2172 28.4079C41.5672 28.2274 42.061 27.8434 42.558 27.3653C43.0235 26.9175 43.2976 26.5617 43.4225 26.2433C43.4626 26.1409 43.5386 25.9979 43.5913 25.9256C43.644 25.8533 43.7501 25.6282 43.827 25.4254C43.9572 25.0825 43.9687 25.0076 43.9919 24.3497C44.0188 23.5912 43.9824 23.3558 43.8256 23.2716C43.7082 23.2086 43.5438 23.3806 43.4828 23.6302C43.3932 23.9973 43.2046 24.2948 42.8025 24.7033C42.5861 24.923 42.2625 25.1978 42.0833 25.314C41.6694 25.5822 41.2547 25.9408 40.8044 26.4197C40.675 26.5573 40.6194 26.5221 40.6068 26.2948C40.5913 26.0147 40.5142 25.6115 40.4231 25.3338C40.3795 25.2012 40.3214 25.004 40.2939 24.8955C40.1696 24.4052 40.1211 24.2797 39.9788 24.0793C39.8179 23.8527 39.6585 23.5127 39.6121 23.2971C39.5968 23.2256 39.5435 23.0777 39.4938 22.9683C39.4442 22.859 39.3676 22.6857 39.3238 22.5833C39.2325 22.3698 39.2026 22.3591 39.0811 22.4956ZM37.4038 27.5615C37.286 27.6135 37.0053 27.8918 36.8875 28.0734C36.697 28.3671 36.6676 28.4184 36.5981 28.5775C36.5613 28.6619 36.4812 28.8197 36.42 28.9282C36.1846 29.3462 36.0413 29.7063 36.002 29.9793C35.9795 30.1354 35.9431 30.3327 35.9209 30.4176C35.6811 31.3397 35.5863 32.0159 35.5308 33.202C35.509 33.6664 35.4657 34.0685 35.4157 34.269C35.3202 34.6524 35.3488 34.7297 35.5939 34.7503C35.8182 34.7691 36.0947 34.695 36.4758 34.5137C36.6494 34.4311 36.8109 34.3636 36.8348 34.3636C36.8587 34.3636 36.9691 34.3326 37.0802 34.2948C37.1914 34.2569 37.4329 34.199 37.6171 34.1662C38.3075 34.0427 38.4377 33.9973 39.0881 33.6528C39.1602 33.6146 39.3896 33.4997 39.5979 33.3974C40.0558 33.1726 40.5591 32.7542 40.9768 32.2512C41.3541 31.7969 41.429 31.6843 41.5547 31.3829C41.6101 31.2503 41.688 31.0925 41.7281 31.0322C41.8181 30.8968 41.9861 30.4713 41.9964 30.3528C42.0235 30.0425 41.9916 29.893 41.8832 29.8217C41.7772 29.7521 41.7675 29.7534 41.6639 29.851C41.6043 29.9071 41.5326 30.0299 41.5045 30.1239C41.4651 30.2561 41.3984 30.3329 41.2103 30.4627C41.0765 30.5551 40.9114 30.6915 40.8432 30.7657C40.7751 30.84 40.6961 30.9007 40.6678 30.9007C40.6394 30.9007 40.5428 30.9402 40.4532 30.9884C40.3635 31.0366 40.2629 31.0761 40.2296 31.0761C40.1678 31.0761 39.7482 31.2512 39.5402 31.3639C39.4764 31.3985 39.3879 31.4268 39.3435 31.4269C39.2992 31.427 39.2039 31.4626 39.1318 31.5061C39.0597 31.5495 38.8833 31.611 38.7398 31.6427C38.5963 31.6744 38.439 31.7251 38.3902 31.7553C38.3414 31.7855 38.1661 31.8822 38.0007 31.9701L37.7 32.13L37.7262 31.9427C37.7406 31.8397 37.7718 31.6667 37.7956 31.5582C37.86 31.2643 37.8502 29.9776 37.7768 29.0816C37.7412 28.6477 37.712 28.1437 37.7118 27.9617C37.7115 27.556 37.6365 27.4586 37.4038 27.5615ZM6.40013 27.6242C6.38899 27.6543 6.36128 28.0439 6.33856 28.4899C6.31588 28.9359 6.27424 29.3698 6.24605 29.4542C6.21787 29.5386 6.18509 29.9725 6.17325 30.4186C6.1535 31.1633 6.15922 31.2508 6.24378 31.4909C6.33279 31.7439 6.36456 32.0408 6.30854 32.097C6.28022 32.1254 6.1098 32.0403 5.75855 31.8222C5.64537 31.7519 5.47822 31.6822 5.38711 31.6673C5.2332 31.6422 4.93386 31.5361 4.45676 31.3374C4.34861 31.2924 4.04765 31.1726 3.78795 31.0712C3.52825 30.9697 3.29228 30.8542 3.26357 30.8145C3.23486 30.7747 3.09869 30.6574 2.96104 30.5539C2.82339 30.4504 2.65283 30.2713 2.58208 30.1559C2.51133 30.0405 2.40903 29.9046 2.35476 29.8539C2.26312 29.7683 2.25045 29.7668 2.17743 29.8332C2.06246 29.9375 2.03751 30.152 2.09816 30.5146C2.16166 30.894 2.17241 30.9205 2.42398 31.3171C2.53104 31.4859 2.66524 31.7226 2.72227 31.8432C2.78476 31.9753 2.91542 32.1384 3.05141 32.254C3.17542 32.3594 3.27755 32.4679 3.27834 32.4951C3.28091 32.5825 3.43102 32.7296 3.68202 32.8906C3.81666 32.977 3.95265 33.0832 3.9842 33.1266C4.06701 33.2405 4.29892 33.3952 4.46576 33.448C4.54494 33.4729 4.82637 33.6003 5.09118 33.731C5.60014 33.9822 5.81033 34.0496 6.44506 34.1656C6.66137 34.205 6.90031 34.2658 6.97604 34.3005C7.05177 34.3352 7.13292 34.3636 7.1563 34.3636C7.17972 34.3636 7.35307 34.4341 7.54159 34.5203C7.93641 34.7007 8.55654 34.8118 8.66504 34.7215C8.74401 34.6557 8.70428 34.4158 8.5717 34.1571C8.49431 34.0063 8.47661 33.8943 8.4746 33.5435C8.47106 32.9268 8.40434 32.1988 8.23242 30.9007C8.16133 30.3642 8.1244 30.1815 8.03722 29.9364C7.97687 29.7666 7.75466 29.2599 7.68379 29.1303C7.65883 29.0848 7.61063 28.9536 7.57664 28.8387C7.54264 28.7239 7.43584 28.5343 7.33935 28.4174C7.24286 28.3005 7.12492 28.1244 7.0772 28.0259C6.9479 27.7589 6.71328 27.5694 6.51209 27.5694C6.46171 27.5694 6.41132 27.594 6.40013 27.6242ZM33.6694 32.2019C33.4511 32.2514 33.1302 32.4508 32.973 32.6346C32.8784 32.7452 32.7142 32.8982 32.6082 32.9746C32.5021 33.051 32.3893 33.163 32.3574 33.2235C32.3255 33.284 32.198 33.4519 32.0739 33.5965C31.9499 33.7412 31.8309 33.9039 31.8095 33.9581C31.7881 34.0124 31.7505 34.0568 31.7259 34.0568C31.7013 34.0568 31.6811 34.0844 31.6811 34.1181C31.6811 34.1519 31.5582 34.3639 31.408 34.5893C31.2557 34.8179 31.0888 35.1349 31.0307 35.306C30.9735 35.4748 30.8518 35.7608 30.7602 35.9416C30.5621 36.3333 30.4295 36.7049 30.3878 36.9858C30.3482 37.2536 30.1667 37.7371 30.0643 37.8484C29.942 37.9811 29.671 38.4814 29.671 38.5743C29.671 38.7373 29.8048 38.752 31.454 38.7707C32.9814 38.788 33.5995 38.7594 33.9333 38.6559C34.0065 38.6333 34.1933 38.586 34.3485 38.5509C34.5037 38.5158 34.7603 38.4578 34.9187 38.4219C35.0773 38.386 35.3076 38.2918 35.4317 38.2122C35.5555 38.1326 35.8352 37.9591 36.0533 37.8265C36.2848 37.6857 36.4845 37.5292 36.5333 37.4505C36.5793 37.3763 36.7137 37.2627 36.8321 37.1981C36.9979 37.1075 37.0747 37.028 37.167 36.8508C37.2328 36.7244 37.3506 36.546 37.4289 36.4543C37.5923 36.2626 37.6849 35.9679 37.62 35.8461C37.5613 35.7362 37.3931 35.7461 37.2452 35.8682C37.0786 36.0057 36.3043 36.3799 36.1863 36.3799C36.1344 36.3799 36.0267 36.4073 35.947 36.4407C35.7514 36.5226 35.506 36.5483 34.6308 36.5782C34.2222 36.5921 33.6548 36.6235 33.3699 36.6479C33.0849 36.6722 32.8438 36.6842 32.8341 36.6744C32.7957 36.6359 32.9545 36.2752 33.0797 36.1166C33.2683 35.8778 33.4118 35.5277 33.4667 35.1723C33.4928 35.0036 33.5557 34.6688 33.6064 34.4283C33.6572 34.1878 33.726 33.8529 33.7595 33.6842C33.8454 33.2505 33.8893 33.0813 33.9417 32.9818C33.9668 32.9341 34.0115 32.7773 34.0411 32.6333C34.0706 32.4893 34.1031 32.3497 34.1132 32.3233C34.1506 32.2256 33.8852 32.1529 33.6694 32.2019ZM9.98968 32.2514C9.97758 32.2711 9.99646 32.4141 10.0316 32.5692C10.0667 32.7244 10.1149 33.019 10.1387 33.2239C10.1625 33.4288 10.2095 33.6853 10.2433 33.7938C10.277 33.9022 10.317 34.0781 10.3321 34.1845C10.3471 34.291 10.4302 34.6164 10.5167 34.9078C10.6033 35.1992 10.6905 35.5355 10.7106 35.6554C10.7307 35.7752 10.7836 35.9231 10.8283 35.9841C11.2435 36.5518 11.3127 36.7216 11.1192 36.6984C10.5942 36.6356 10.059 36.5995 9.32918 36.5777C8.23395 36.5449 7.95834 36.485 7.21459 36.1182C7.06099 36.0425 6.86946 35.9301 6.78897 35.8685C6.62912 35.7462 6.45484 35.7519 6.40546 35.8809C6.39039 35.9204 6.41049 36.0686 6.45013 36.2103C6.50379 36.4021 6.56483 36.5065 6.68898 36.6191C6.78071 36.7022 6.88537 36.8276 6.9215 36.8978C6.95769 36.9679 7.05907 37.0823 7.14681 37.1519C7.23452 37.2216 7.41333 37.3835 7.54408 37.5117C7.67487 37.64 7.85373 37.775 7.94157 37.8119C8.0294 37.8487 8.1809 37.9428 8.27822 38.0211C8.57878 38.2627 9.06008 38.4438 9.67877 38.548C9.7749 38.5641 9.97797 38.6153 10.13 38.6618C10.4807 38.7688 11.6351 38.8166 12.4002 38.7556C12.7557 38.7272 13.112 38.7279 13.4564 38.7574C14.0806 38.8108 14.274 38.7841 14.3417 38.635C14.4044 38.4971 14.3593 38.3965 14.0687 38.0256C13.8664 37.7674 13.8364 37.6986 13.741 37.2749C13.68 37.0044 13.5452 36.6035 13.42 36.3203C13.3014 36.0517 13.1656 35.7122 13.1184 35.5657C13.0712 35.4192 12.9252 35.1224 12.7938 34.9062C12.6624 34.6899 12.5425 34.4646 12.5271 34.4054C12.5118 34.3462 12.4317 34.2246 12.349 34.135C12.2663 34.0454 12.125 33.8524 12.0349 33.706C11.8418 33.3922 10.8062 32.3666 10.5915 32.2766C10.4341 32.2107 10.0253 32.1935 9.98968 32.2514ZM14.5184 35.3548C14.4884 35.3681 14.4638 35.4394 14.4638 35.5132C14.4638 35.6162 14.5157 35.6993 14.6876 35.8712C14.8106 35.9943 14.9644 36.2035 15.0293 36.3361C15.0942 36.4687 15.2688 36.7745 15.4172 37.0155C15.5657 37.2566 15.6873 37.4877 15.6873 37.5291C15.6873 37.5705 15.7757 37.7041 15.8836 37.8261C15.9916 37.948 16.1208 38.128 16.1707 38.2261C16.2809 38.4428 16.9007 39.0752 17.0463 39.1194C17.1547 39.1523 17.3916 39.3517 17.3916 39.41C17.3916 39.4281 17.2982 39.456 17.184 39.472C17.0699 39.488 16.8302 39.5386 16.6514 39.5843C16.4727 39.6301 16.2733 39.6675 16.2084 39.6675C16.0634 39.6675 15.364 39.8671 15.1848 39.9596C14.8319 40.1419 14.3957 40.2428 13.852 40.2679C13.3092 40.2929 12.7005 40.2312 12.6479 40.1457C12.6343 40.1238 12.5668 40.1058 12.4977 40.1058C12.3332 40.1058 12.2804 40.2489 12.3953 40.3835C12.4399 40.4357 12.5118 40.5488 12.5551 40.6349C12.6326 40.7891 12.8238 40.9387 12.9435 40.9387C12.9772 40.9387 13.0725 40.9896 13.1553 41.0518C13.5544 41.3518 13.8937 41.4704 14.9882 41.692C15.4602 41.7877 16.4009 41.7582 17.0639 41.6271C17.3763 41.5654 17.7204 41.5013 17.8286 41.4847C17.9367 41.4683 18.0744 41.4291 18.1345 41.3978C18.6491 41.1296 19.9693 40.6414 20.3978 40.5608C20.4802 40.5453 20.6345 40.4838 20.7409 40.4242C20.9947 40.2819 20.9776 40.2331 20.4972 39.7331C20.2887 39.5162 20.0219 39.1907 19.9042 39.0099C19.7866 38.8291 19.6136 38.6122 19.5198 38.5278C19.426 38.4434 19.3201 38.3152 19.2844 38.2429C19.2488 38.1706 19.0984 37.992 18.9502 37.8461C18.802 37.7001 18.6454 37.5275 18.6022 37.4625C18.559 37.3975 18.4579 37.3097 18.3775 37.2676C18.297 37.2254 18.1578 37.1022 18.068 36.9937C17.9783 36.8853 17.8237 36.7493 17.7247 36.6916C17.6256 36.6339 17.4954 36.5442 17.4353 36.4922C17.2124 36.2995 16.7929 36.0425 16.5061 35.9229C16.3435 35.8552 16.1996 35.7821 16.1864 35.7606C16.1492 35.7002 15.5991 35.4503 15.4033 35.4049C15.1893 35.3552 14.5934 35.3215 14.5184 35.3548ZM28.5566 35.4298C28.2913 35.5126 28.0987 35.6017 27.8356 35.7637C27.7996 35.7859 27.5958 35.886 27.3828 35.9861C27.1698 36.0862 26.9122 36.2451 26.8104 36.3392C26.7086 36.4333 26.5584 36.5399 26.4766 36.5759C26.2865 36.6598 26.2225 36.7138 26.0649 36.9234C25.9942 37.0173 25.877 37.1192 25.8045 37.1496C25.7319 37.1801 25.6135 37.2695 25.5414 37.3483C25.4693 37.4271 25.3077 37.5963 25.1822 37.7244C25.0568 37.8525 24.9248 38.0141 24.889 38.0835C24.8532 38.153 24.7237 38.294 24.6013 38.3968C24.4725 38.505 24.3315 38.678 24.2663 38.8078C24.1527 39.0342 24.0681 39.134 23.4548 39.7651C23.0301 40.2021 23.0089 40.3124 23.3237 40.4463C23.4379 40.4949 23.6001 40.5486 23.6842 40.5657C23.9972 40.6294 25.029 40.9923 25.3733 41.1598C25.5692 41.2551 25.7495 41.3332 25.774 41.3332C25.7984 41.3332 25.8741 41.3623 25.9421 41.3979C26.0101 41.4335 26.4099 41.5269 26.8305 41.6055C27.8006 41.7869 28.599 41.7994 29.2995 41.6442C29.5399 41.591 29.8561 41.5227 30.0022 41.4924C30.1484 41.4621 30.3254 41.3967 30.3955 41.3471C30.4657 41.2974 30.6281 41.2 30.7564 41.1306C31.3847 40.7908 31.4982 40.7018 31.5963 40.4723C31.7377 40.1414 31.6356 40.0285 31.313 40.1591C31.1441 40.2274 30.9608 40.2534 30.5449 40.268C29.904 40.2905 29.5127 40.2278 28.9936 40.0195C28.4887 39.8169 28.2938 39.7576 27.9012 39.6872C27.7089 39.6527 27.4238 39.5948 27.2675 39.5585C27.1113 39.5221 26.9098 39.4816 26.8196 39.4684C26.7281 39.4549 26.6558 39.4196 26.6558 39.3882C26.6558 39.3102 26.8246 39.1667 26.9968 39.0984C27.0762 39.067 27.204 38.9711 27.2808 38.8855C27.3576 38.7998 27.5256 38.628 27.6541 38.5036C27.7826 38.3792 27.9226 38.1993 27.9652 38.1038C28.0077 38.0084 28.1005 37.8626 28.1712 37.7798C28.333 37.5903 28.4638 37.3629 28.6058 37.0245C28.6669 36.8787 28.7922 36.6691 28.8841 36.5587C28.976 36.4484 29.0798 36.289 29.1147 36.2046C29.1497 36.1202 29.2695 35.9407 29.3809 35.8057C29.6022 35.5376 29.6281 35.4426 29.4991 35.3733C29.3608 35.2991 28.8843 35.3277 28.5566 35.4298ZM21.9467 36.3653C21.9164 36.3776 21.8389 36.4992 21.7746 36.6355C21.7103 36.7719 21.5743 36.9728 21.4725 37.0821C21.3706 37.1913 21.2471 37.383 21.1979 37.5082C21.1487 37.6333 21.0476 37.8439 20.9732 37.9761C20.7144 38.4361 20.753 38.7785 21.1194 39.273C21.3667 39.6066 21.4942 39.6675 21.9456 39.6675C22.6534 39.6675 22.9971 39.4107 23.1377 38.7765C23.2008 38.4919 23.201 38.4439 23.1399 38.2702C23.1028 38.1648 23.0723 38.0464 23.072 38.0072C23.0711 37.8585 22.8413 37.4489 22.6373 37.2325C22.5204 37.1086 22.4053 36.9363 22.3815 36.8498C22.3409 36.7025 22.0837 36.3319 22.0273 36.3396C22.0133 36.3415 21.977 36.3531 21.9467 36.3653ZM21.6126 40.7369C21.2974 40.8548 21.0781 41.0581 20.9221 41.377C20.7158 41.7989 20.727 41.8992 21.0471 42.4948C21.2074 42.793 21.2808 42.9536 21.2814 43.0075C21.2818 43.0389 21.3854 43.1745 21.5117 43.3089C21.6658 43.4729 21.7632 43.6242 21.8079 43.7691C21.8625 43.946 21.8946 43.9875 21.9854 43.9983C22.072 44.0086 22.1206 43.9751 22.2085 43.8448C22.2703 43.7532 22.335 43.629 22.3524 43.5687C22.3697 43.5084 22.446 43.3802 22.5219 43.2838C22.9163 42.7826 23.0973 42.4068 23.1911 41.8949C23.2175 41.7505 23.0098 41.1061 22.9067 41.0128C22.7585 40.8789 22.1803 40.6318 22.0249 40.6361C21.9401 40.6384 21.7546 40.6838 21.6126 40.7369Z" fill="white"/>
<path d="M63.888 9.384C64.016 9.21333 64.4213 9.05333 65.104 8.904C65.808 8.73333 66.4693 8.648 67.088 8.648C67.7067 8.648 68.2187 8.73333 68.624 8.904L65.488 33H61.136L62.384 22.184L61.968 22.312C60.0053 22.888 58.224 23.4533 56.624 24.008L56.176 27.528C55.664 31.304 53.8933 33.192 50.864 33.192C49.776 33.192 48.9333 32.872 48.336 32.232C47.7387 31.5707 47.44 30.728 47.44 29.704C47.44 27.4213 49.0507 25.3627 52.272 23.528L53.904 9.64C54.3093 9.36267 54.8427 9.128 55.504 8.936C56.1653 8.744 56.8053 8.648 57.424 8.648C58.0427 8.648 58.448 8.65867 58.64 8.68L56.976 21.416C58.2773 20.9467 59.92 20.4453 61.904 19.912L62.672 19.72L63.888 9.384ZM49.68 29.224C49.68 29.9067 49.9893 30.248 50.608 30.248C50.9493 30.248 51.1733 30.152 51.28 29.96C51.3867 29.7467 51.4613 29.576 51.504 29.448C51.568 29.2987 51.6213 29.1067 51.664 28.872C51.7067 28.6373 51.7387 28.4347 51.76 28.264C51.7813 28.072 51.8027 27.8267 51.824 27.528C51.8453 27.2293 51.8667 26.9947 51.888 26.824L51.952 26.344C50.4373 27.3893 49.68 28.3493 49.68 29.224ZM84.5155 17.928C83.6408 24.84 83.2035 28.52 83.2035 28.968C83.2035 29.8213 83.5128 30.248 84.1315 30.248C84.6862 30.248 85.2835 29.8747 85.9235 29.128C86.5848 28.36 87.1075 27.2187 87.4915 25.704C88.1955 26.472 88.6222 27.0693 88.7715 27.496C88.2808 29.5653 87.5022 31.0267 86.4355 31.88C85.3688 32.7333 84.2702 33.16 83.1395 33.16C81.2835 33.16 80.0355 32.4453 79.3955 31.016C78.2862 32.4453 76.8035 33.16 74.9475 33.16C73.4115 33.16 72.2275 32.776 71.3955 32.008C70.5635 31.24 70.1475 30.2373 70.1475 29C70.1475 28.7013 70.2008 28.1787 70.3075 27.432C70.7982 23.464 71.1715 20.3067 71.4275 17.96C72.0888 17.7253 72.6968 17.608 73.2515 17.608C73.8062 17.608 74.2222 17.6293 74.4995 17.672C74.7768 17.7147 75.0435 17.8747 75.2995 18.152C75.5555 18.4293 75.6835 18.824 75.6835 19.336L74.6275 27.496C74.5848 27.752 74.5635 27.9867 74.5635 28.2C74.5635 29.4587 75.1395 30.088 76.2915 30.088C77.3582 30.088 78.2435 29.5653 78.9475 28.52C78.9475 28.2853 78.9688 27.912 79.0115 27.4L80.0675 18.888C80.2168 18.5253 80.5368 18.2267 81.0275 17.992C81.5182 17.736 82.1262 17.608 82.8515 17.608C83.5982 17.608 84.1528 17.7147 84.5155 17.928ZM95.8383 17.576C97.3743 17.576 98.6969 18.2053 99.8063 19.464C100.916 20.7227 101.47 22.1947 101.47 23.88C101.47 24.1147 101.46 24.36 101.438 24.616C101.204 27.4107 100.265 29.544 98.6223 31.016C96.9796 32.4667 94.8356 33.192 92.1903 33.192C91.1236 33.1493 90.1956 32.9573 89.4062 32.616C88.6169 32.2747 88.0303 31.848 87.6463 31.336C86.9209 30.3973 86.5583 29.5653 86.5583 28.84C86.5583 28.0933 86.6649 26.8987 86.8783 25.256C87.3263 21.8853 87.9663 16.4347 88.7983 8.904C89.2463 8.73333 89.8436 8.648 90.5903 8.648C92.2969 8.648 93.1503 9.13867 93.1503 10.12L92.0623 18.632C93.0649 17.928 94.3236 17.576 95.8383 17.576ZM90.8783 28.616C90.8783 29.1067 91.0596 29.5227 91.4223 29.864C91.8063 30.184 92.3289 30.344 92.9903 30.344C94.0783 30.344 94.9743 29.8427 95.6783 28.84C96.5316 27.624 96.9583 26.0453 96.9583 24.104C96.9583 23.1653 96.7449 22.3333 96.3183 21.608C95.8916 20.8827 95.2303 20.52 94.3343 20.52C93.1183 20.52 92.1903 21.2453 91.5503 22.696L91.2943 24.616C91.0169 26.7707 90.8783 28.104 90.8783 28.616Z" fill="#FE0404"/>
</svg>
