<svg width="12" height="12" viewBox="0 0 12 12" fill="none" xmlns="http://www.w3.org/2000/svg">
    <path fill-rule="evenodd" clip-rule="evenodd" d="M5.31312 1.59509C5.45624 1.59487 5.61593 1.59509 5.79533 1.59509C7.23055 1.59509 7.40066 1.60025 7.96742 1.62601C8.49151 1.64997 8.77596 1.73756 8.96544 1.81114C9.21629 1.90858 9.39513 2.02506 9.58316 2.21323C9.77129 2.40139 9.88776 2.58059 9.98541 2.83147C10.059 3.02075 10.1467 3.30523 10.1705 3.82939C10.1963 4.39612 10.2019 4.56636 10.2019 6.00108C10.2019 7.43581 10.1963 7.60605 10.1705 8.17277C10.1466 8.69693 10.059 8.98142 9.98541 9.1707C9.88798 9.42158 9.77129 9.60022 9.58316 9.78827C9.39502 9.97643 9.2164 10.0929 8.96544 10.1903C8.77618 10.2643 8.49151 10.3516 7.96742 10.3756C7.40077 10.4014 7.23055 10.407 5.79533 10.407C4.36 10.407 4.1899 10.4014 3.62325 10.3756C3.09915 10.3514 2.81471 10.2638 2.62511 10.1902C2.37426 10.0928 2.19509 9.97632 2.00695 9.78816C1.81881 9.59999 1.70235 9.42124 1.60469 9.17025C1.53112 8.98097 1.44343 8.69649 1.41958 8.17233C1.39382 7.6056 1.38867 7.43536 1.38867 5.99974C1.38867 4.56412 1.39382 4.39477 1.41958 3.82805C1.44355 3.30389 1.53112 3.0194 1.60469 2.8299C1.70212 2.57902 1.81881 2.39982 2.00695 2.21166C2.19509 2.0235 2.37426 1.90702 2.62511 1.80935C2.81459 1.73543 3.09915 1.64807 3.62325 1.62399C4.11912 1.60159 4.31129 1.59487 5.31312 1.59375V1.59509ZM8.66465 2.48774C8.30853 2.48774 8.0196 2.77636 8.0196 3.13264C8.0196 3.4888 8.30853 3.77776 8.66465 3.77776C9.02076 3.77776 9.30969 3.4888 9.30969 3.13264C9.30969 2.77648 9.02076 2.48774 8.66465 2.48774ZM5.79533 3.2415C4.27086 3.2415 3.03487 4.47765 3.03487 6.00231C3.03487 7.52698 4.27086 8.76257 5.79533 8.76257C7.3198 8.76257 8.55535 7.52698 8.55535 6.00231C8.55535 4.47765 7.3198 3.2415 5.79533 3.2415Z" fill="white"/>
    <path fill-rule="evenodd" clip-rule="evenodd" d="M5.79533 4.21031C6.78484 4.21031 7.58711 5.01257 7.58711 6.00231C7.58711 6.99195 6.78484 7.79432 5.79533 7.79432C4.80571 7.79432 4.00355 6.99195 4.00355 6.00231C4.00355 5.01257 4.80571 4.21031 5.79533 4.21031Z" fill="white"/>
</svg>
