<svg width="11" height="12" viewBox="0 0 11 12" fill="none" xmlns="http://www.w3.org/2000/svg">
    <path d="M5.39717 1.37305C4.43334 1.37419 3.50931 1.75758 2.82778 2.43911C2.14625 3.12064 1.76286 4.04467 1.76172 5.0085C1.76172 8.11915 5.06667 10.4688 5.20739 10.5672C5.26304 10.6061 5.32929 10.6269 5.39717 10.6269C5.46505 10.6269 5.53129 10.6061 5.58694 10.5672C5.72766 10.4688 9.03262 8.11915 9.03262 5.0085C9.03147 4.04467 8.64809 3.12064 7.96655 2.43911C7.28502 1.75758 6.361 1.37419 5.39717 1.37305ZM5.39741 3.68663C5.65887 3.68663 5.91446 3.76417 6.13186 3.90943C6.34926 4.05469 6.5187 4.26115 6.61876 4.50272C6.71882 4.74428 6.745 5.01008 6.69399 5.26652C6.64298 5.52296 6.51707 5.75852 6.33219 5.9434C6.14731 6.12828 5.91175 6.25419 5.65532 6.3052C5.39888 6.3562 5.13307 6.33002 4.89151 6.22997C4.64995 6.12991 4.44348 5.96047 4.29822 5.74307C4.15296 5.52567 4.07543 5.27008 4.07543 5.00862C4.07542 4.83501 4.10961 4.6631 4.17605 4.50271C4.24248 4.34232 4.33986 4.19658 4.46262 4.07382C4.58537 3.95106 4.73111 3.85369 4.8915 3.78725C5.0519 3.72082 5.2238 3.68663 5.39741 3.68663Z" fill="white"/>
</svg>
