<svg width="20" height="20" viewBox="0 0 20 20" fill="none" xmlns="http://www.w3.org/2000/svg">
    <path d="M8.33203 9.16699V6.66699L12.4987 10.0003L8.33203 13.3337V10.8337H0.832031V9.16699H8.33203ZM2.04686 12.5003H3.81663C4.80561 14.9435 7.20088 16.667 9.9987 16.667C13.6806 16.667 16.6654 13.6822 16.6654 10.0003C16.6654 6.31843 13.6806 3.33366 9.9987 3.33366C7.20088 3.33366 4.80561 5.05713 3.81663 7.50033H2.04686C3.10876 4.1194 6.26733 1.66699 9.9987 1.66699C14.601 1.66699 18.332 5.39795 18.332 10.0003C18.332 14.6027 14.601 18.3337 9.9987 18.3337C6.26733 18.3337 3.10876 15.8812 2.04686 12.5003Z" fill="#FE0404" fill-opacity="0.9"/>
</svg>
