<svg width="20" height="20" viewBox="0 0 20 20" fill="none" xmlns="http://www.w3.org/2000/svg">
    <path d="M16.2513 18.75H3.7513C3.53029 18.75 3.31833 18.6622 3.16205 18.5059C3.00577 18.3496 2.91797 18.1377 2.91797 17.9167V2.08334C2.91797 1.86232 3.00577 1.65036 3.16205 1.49408C3.31833 1.3378 3.53029 1.25 3.7513 1.25H12.9596C13.1721 1.24954 13.3767 1.33085 13.5309 1.47709L16.8226 4.57334C16.9052 4.65135 16.971 4.74538 17.0161 4.84968C17.0611 4.95399 17.0845 5.06638 17.0846 5.18V17.9167C17.0846 18.1377 16.9968 18.3496 16.8406 18.5059C16.6843 18.6622 16.4723 18.75 16.2513 18.75ZM3.7513 2.08334V17.9167H16.2513V5.18L12.9596 2.08334H3.7513Z" fill="#FEFFFF"/>
    <path d="M16.6263 5.41667H13.3346C13.1136 5.41667 12.9017 5.32887 12.7454 5.17259C12.5891 5.01631 12.5013 4.80435 12.5013 4.58333V1.66667C12.5013 1.55616 12.5452 1.45018 12.6233 1.37204C12.7015 1.2939 12.8075 1.25 12.918 1.25C13.0285 1.25 13.1345 1.2939 13.2126 1.37204C13.2907 1.45018 13.3346 1.55616 13.3346 1.66667V4.58333H16.6263C16.7368 4.58333 16.8428 4.62723 16.9209 4.70537C16.9991 4.78351 17.043 4.88949 17.043 5C17.043 5.11051 16.9991 5.21649 16.9209 5.29463C16.8428 5.37277 16.7368 5.41667 16.6263 5.41667ZM9.58464 5.83333H5.83464C5.72413 5.83333 5.61815 5.78943 5.54001 5.71129C5.46187 5.63315 5.41797 5.52717 5.41797 5.41667C5.41797 5.30616 5.46187 5.20018 5.54001 5.12204C5.61815 5.0439 5.72413 5 5.83464 5H9.58464C9.69514 5 9.80112 5.0439 9.87926 5.12204C9.9574 5.20018 10.0013 5.30616 10.0013 5.41667C10.0013 5.52717 9.9574 5.63315 9.87926 5.71129C9.80112 5.78943 9.69514 5.83333 9.58464 5.83333ZM14.168 8.33333H5.83464C5.72413 8.33333 5.61815 8.28943 5.54001 8.21129C5.46187 8.13315 5.41797 8.02717 5.41797 7.91667C5.41797 7.80616 5.46187 7.70018 5.54001 7.62204C5.61815 7.5439 5.72413 7.5 5.83464 7.5H14.168C14.2785 7.5 14.3845 7.5439 14.4626 7.62204C14.5407 7.70018 14.5846 7.80616 14.5846 7.91667C14.5846 8.02717 14.5407 8.13315 14.4626 8.21129C14.3845 8.28943 14.2785 8.33333 14.168 8.33333ZM14.168 10.8333H5.83464C5.72413 10.8333 5.61815 10.7894 5.54001 10.7113C5.46187 10.6332 5.41797 10.5272 5.41797 10.4167C5.41797 10.3062 5.46187 10.2002 5.54001 10.122C5.61815 10.0439 5.72413 10 5.83464 10H14.168C14.2785 10 14.3845 10.0439 14.4626 10.122C14.5407 10.2002 14.5846 10.3062 14.5846 10.4167C14.5846 10.5272 14.5407 10.6332 14.4626 10.7113C14.3845 10.7894 14.2785 10.8333 14.168 10.8333ZM14.168 13.3333H5.83464C5.72413 13.3333 5.61815 13.2894 5.54001 13.2113C5.46187 13.1332 5.41797 13.0272 5.41797 12.9167C5.41797 12.8062 5.46187 12.7002 5.54001 12.622C5.61815 12.5439 5.72413 12.5 5.83464 12.5H14.168C14.2785 12.5 14.3845 12.5439 14.4626 12.622C14.5407 12.7002 14.5846 12.8062 14.5846 12.9167C14.5846 13.0272 14.5407 13.1332 14.4626 13.2113C14.3845 13.2894 14.2785 13.3333 14.168 13.3333ZM14.168 15.8333H5.83464C5.72413 15.8333 5.61815 15.7894 5.54001 15.7113C5.46187 15.6332 5.41797 15.5272 5.41797 15.4167C5.41797 15.3062 5.46187 15.2002 5.54001 15.122C5.61815 15.0439 5.72413 15 5.83464 15H14.168C14.2785 15 14.3845 15.0439 14.4626 15.122C14.5407 15.2002 14.5846 15.3062 14.5846 15.4167C14.5846 15.5272 14.5407 15.6332 14.4626 15.7113C14.3845 15.7894 14.2785 15.8333 14.168 15.8333Z" fill="#FEFFFF"/>
</svg>
