<svg width="20" height="20" viewBox="0 0 20 20" fill="none" xmlns="http://www.w3.org/2000/svg">
    <path d="M6.07195 12.6057C5.94009 12.6059 5.81161 12.564 5.70507 12.4864L1.93726 9.74918C1.87086 9.70092 1.81461 9.64005 1.77174 9.57006C1.72886 9.50006 1.70019 9.4223 1.68737 9.34122C1.67454 9.26015 1.67781 9.17734 1.69699 9.09752C1.71616 9.01771 1.75087 8.94245 1.79913 8.87605C1.84739 8.80966 1.90826 8.75341 1.97826 8.71053C2.04825 8.66766 2.12601 8.63899 2.20709 8.62616C2.28817 8.61334 2.37098 8.6166 2.45079 8.63578C2.5306 8.65496 2.60586 8.68967 2.67226 8.73793L6.44007 11.4751C6.5469 11.5527 6.6264 11.6622 6.66716 11.7878C6.70793 11.9134 6.70787 12.0487 6.66698 12.1742C6.6261 12.2998 6.5465 12.4092 6.4396 12.4867C6.3327 12.5642 6.20399 12.6059 6.07195 12.6057ZM7.57288 7.9873H2.91601C2.75025 7.9873 2.59128 7.92146 2.47407 7.80425C2.35686 7.68704 2.29101 7.52807 2.29101 7.3623C2.29101 7.19654 2.35686 7.03757 2.47407 6.92036C2.59128 6.80315 2.75025 6.7373 2.91601 6.7373H7.57288C7.73864 6.7373 7.89761 6.80315 8.01482 6.92036C8.13204 7.03757 8.19788 7.19654 8.19788 7.3623C8.19788 7.52807 8.13204 7.68704 8.01482 7.80425C7.89761 7.92146 7.73864 7.9873 7.57288 7.9873Z" fill="#FEFFFF"/>
    <path d="M2.30492 9.86863C2.17742 9.86863 2.04898 9.82988 1.93773 9.74925C1.35148 9.323 1.12023 8.59457 1.34835 7.893C1.57648 7.19082 2.1921 6.73738 2.91679 6.73738C3.08255 6.73738 3.24152 6.80323 3.35873 6.92044C3.47594 7.03765 3.54179 7.19662 3.54179 7.36238C3.54179 7.52814 3.47594 7.68711 3.35873 7.80432C3.24152 7.92153 3.08255 7.98738 2.91679 7.98738C2.65273 7.98738 2.5596 8.21113 2.53742 8.27957C2.51523 8.348 2.45929 8.58269 2.67335 8.738C2.7802 8.81564 2.85971 8.92513 2.90047 9.05076C2.94123 9.17639 2.94114 9.3117 2.90022 9.43728C2.8593 9.56285 2.77964 9.67224 2.67269 9.74973C2.56574 9.82723 2.43699 9.86885 2.30492 9.86863ZM7.57367 7.98769C7.47502 7.98761 7.37779 7.96421 7.28992 7.9194C7.20204 7.87458 7.12601 7.80962 7.06803 7.72982C7.01004 7.65002 6.97175 7.55764 6.95627 7.46022C6.9408 7.3628 6.94858 7.2631 6.97898 7.16925L8.41804 2.74019C8.46955 2.58268 8.58138 2.45201 8.72905 2.37681C8.87671 2.3016 9.04817 2.28798 9.20585 2.33894C9.36346 2.39031 9.49424 2.50212 9.56947 2.64983C9.6447 2.79754 9.65824 2.96907 9.6071 3.12675L8.16804 7.55582C8.12713 7.68126 8.04763 7.79057 7.94088 7.86813C7.83414 7.94569 7.70561 7.98754 7.57367 7.98769ZM12.4296 7.98769C12.2976 7.98763 12.1691 7.94583 12.0623 7.86825C11.9555 7.79068 11.8761 7.68131 11.8352 7.55582L10.3962 3.12675C10.3521 2.97111 10.3701 2.80447 10.4462 2.66178C10.5224 2.51908 10.6509 2.41144 10.8047 2.36143C10.9586 2.31142 11.1258 2.32294 11.2713 2.39355C11.4168 2.46417 11.5293 2.58841 11.5852 2.74019L13.0243 7.16925C13.0547 7.2631 13.0625 7.3628 13.047 7.46022C13.0315 7.55764 12.9932 7.65002 12.9352 7.72982C12.8773 7.80962 12.8012 7.87458 12.7133 7.9194C12.6255 7.96421 12.5282 7.98761 12.4296 7.98769Z" fill="#FEFFFF"/>
    <path d="M10.9896 3.55895C10.8577 3.55887 10.7291 3.51705 10.6224 3.43947C10.5157 3.3619 10.4363 3.25254 10.3955 3.12707C10.3137 2.87582 10.0721 2.85645 10.0002 2.85645C9.92865 2.85645 9.68803 2.87613 9.60615 3.12738C9.55485 3.28502 9.44303 3.41582 9.29528 3.49101C9.14754 3.5662 8.97598 3.57962 8.81834 3.52832C8.6607 3.47702 8.5299 3.36519 8.45471 3.21745C8.37952 3.06971 8.3661 2.89815 8.4174 2.74051C8.64147 2.05145 9.26303 1.60645 9.9999 1.60645C10.738 1.60645 11.3599 2.05176 11.584 2.74082C11.6145 2.83462 11.6224 2.93433 11.607 3.03177C11.5916 3.12921 11.5534 3.22162 11.4954 3.30143C11.4374 3.38124 11.3613 3.44618 11.2734 3.49094C11.1855 3.5357 11.0882 3.55901 10.9896 3.55895ZM17.0858 7.9877H12.429C12.2632 7.9877 12.1042 7.92185 11.987 7.80464C11.8698 7.68743 11.804 7.52846 11.804 7.3627C11.804 7.19694 11.8698 7.03796 11.987 6.92075C12.1042 6.80354 12.2632 6.7377 12.429 6.7377H17.0858C17.2516 6.7377 17.4106 6.80354 17.5278 6.92075C17.645 7.03796 17.7108 7.19694 17.7108 7.3627C17.7108 7.52846 17.645 7.68743 17.5278 7.80464C17.4106 7.92185 17.2516 7.9877 17.0858 7.9877ZM13.9299 12.6061C13.7978 12.6065 13.6689 12.5649 13.5619 12.4874C13.4548 12.4099 13.3751 12.3005 13.3342 12.1748C13.2933 12.0492 13.2933 11.9138 13.3342 11.7881C13.3751 11.6625 13.4548 11.553 13.5618 11.4755L17.3296 8.73832C17.4639 8.64629 17.6288 8.61029 17.7893 8.63796C17.9498 8.66564 18.0931 8.75482 18.1888 8.88653C18.2846 9.01825 18.3251 9.18211 18.3019 9.34328C18.2787 9.50445 18.1936 9.65021 18.0646 9.74957L14.2968 12.4868C14.1902 12.5644 14.0618 12.6062 13.9299 12.6061Z" fill="#FEFFFF"/>
    <path d="M17.6966 9.86922C17.5646 9.86942 17.4359 9.82778 17.329 9.75028C17.2221 9.67278 17.1425 9.56339 17.1016 9.43783C17.0608 9.31228 17.0608 9.177 17.1016 9.05143C17.1424 8.92586 17.2219 8.81645 17.3288 8.73891C17.5426 8.58359 17.4863 8.34766 17.4641 8.27891C17.4419 8.21078 17.3491 7.98828 17.0851 7.98828C16.9193 7.98828 16.7603 7.92243 16.6431 7.80522C16.5259 7.68801 16.4601 7.52904 16.4601 7.36328C16.4601 7.19752 16.5259 7.03855 16.6431 6.92134C16.7603 6.80413 16.9193 6.73828 17.0851 6.73828C17.8094 6.73828 18.4251 7.19141 18.6529 7.89266C18.881 8.59516 18.6498 9.32422 18.0638 9.75016C17.9571 9.82763 17.8285 9.86931 17.6966 9.86922ZM15.3676 17.0358C15.2356 17.0357 15.1071 16.9939 15.0004 16.9163C14.8937 16.8387 14.8143 16.7294 14.7735 16.6039L13.3341 12.1745C13.285 12.0175 13.2998 11.8473 13.3753 11.7011C13.4508 11.5549 13.5809 11.4443 13.7375 11.3935C13.894 11.3426 14.0643 11.3555 14.2113 11.4295C14.3584 11.5034 14.4703 11.6323 14.5229 11.7883L15.9619 16.2173C15.9926 16.3112 16.0005 16.4109 15.9851 16.5084C15.9698 16.6059 15.9315 16.6983 15.8735 16.7782C15.8155 16.858 15.7394 16.923 15.6515 16.9678C15.5636 17.0126 15.4663 17.0359 15.3676 17.0358ZM13.7669 18.1983C13.6351 18.1984 13.5066 18.1566 13.4001 18.0789L9.63257 15.3414C9.56617 15.2931 9.50993 15.2323 9.46705 15.1623C9.42417 15.0923 9.3955 15.0145 9.38268 14.9335C9.36985 14.8524 9.37312 14.7696 9.3923 14.6898C9.41147 14.6099 9.44618 14.5347 9.49445 14.4683C9.54271 14.4019 9.60357 14.3456 9.67357 14.3028C9.74357 14.2599 9.82132 14.2312 9.9024 14.2184C9.98348 14.2056 10.0663 14.2088 10.1461 14.228C10.2259 14.2472 10.3012 14.2819 10.3676 14.3302L14.1351 17.0677C14.2419 17.1453 14.3214 17.2547 14.3622 17.3803C14.4029 17.5059 14.4029 17.6412 14.362 17.7668C14.3211 17.8923 14.2415 18.0017 14.1346 18.0792C14.0277 18.1568 13.899 18.1984 13.7669 18.1983Z" fill="#FEFFFF"/>
    <path d="M14.3601 18.394C14.015 18.3933 13.6791 18.2827 13.401 18.0783C13.3329 18.0308 13.2749 17.9702 13.2304 17.9C13.186 17.8298 13.156 17.7514 13.1422 17.6695C13.1284 17.5876 13.1311 17.5037 13.1501 17.4229C13.1691 17.342 13.204 17.2657 13.2528 17.1985C13.3017 17.1313 13.3634 17.0744 13.4344 17.0314C13.5054 16.9883 13.5844 16.9598 13.6665 16.9475C13.7487 16.9353 13.8325 16.9396 13.913 16.9601C13.9935 16.9806 14.0691 17.017 14.1354 17.0671C14.3494 17.2224 14.5569 17.0962 14.6154 17.0537C14.6894 16.9996 14.8535 16.848 14.7741 16.6033C14.7229 16.4457 14.7365 16.2741 14.8118 16.1264C14.8871 15.9787 15.018 15.867 15.1757 15.8158C15.3334 15.7647 15.5049 15.7782 15.6526 15.8535C15.8003 15.9288 15.912 16.0597 15.9632 16.2174C16.1869 16.9068 15.9463 17.6321 15.3504 18.0652C15.0634 18.2769 14.7166 18.392 14.3601 18.394ZM6.23381 18.1977C6.10176 18.1979 5.97306 18.1562 5.86616 18.0787C5.75926 18.0012 5.67966 17.8918 5.63878 17.7662C5.59789 17.6407 5.59783 17.5054 5.6386 17.3798C5.67936 17.2542 5.75886 17.1447 5.86569 17.0671L9.63319 14.3296C9.76752 14.2376 9.93244 14.2016 10.0929 14.2292C10.2534 14.2569 10.3967 14.3461 10.4924 14.4778C10.5882 14.6095 10.6287 14.7734 10.6055 14.9346C10.5823 15.0957 10.4972 15.2415 10.3682 15.3408L6.60069 18.0783C6.49414 18.156 6.36567 18.1978 6.23381 18.1977ZM4.63319 17.0352C4.5345 17.0353 4.4372 17.012 4.34925 16.9672C4.2613 16.9224 4.18521 16.8575 4.12719 16.7776C4.06918 16.6978 4.0309 16.6053 4.01548 16.5079C4.00007 16.4104 4.00796 16.3106 4.0385 16.2168L5.47756 11.7877C5.53012 11.6318 5.64208 11.5028 5.78913 11.4289C5.93618 11.355 6.10645 11.342 6.26298 11.3929C6.41951 11.4438 6.54966 11.5543 6.62517 11.7005C6.70069 11.8468 6.71547 12.0169 6.66631 12.174L5.22725 16.603C5.18658 16.7286 5.10719 16.838 5.00047 16.9157C4.89374 16.9933 4.76517 17.0352 4.63319 17.0352Z" fill="#FEFFFF"/>
    <path d="M5.64168 18.3948C5.28624 18.3929 4.94061 18.278 4.6548 18.0667C4.05699 17.6323 3.81543 16.9064 4.03949 16.2173C4.09409 16.064 4.20635 15.9379 4.3524 15.866C4.49845 15.7942 4.66678 15.782 4.82162 15.8323C4.97645 15.8826 5.10559 15.9912 5.18158 16.1352C5.25757 16.2791 5.27442 16.4471 5.22855 16.6033C5.14668 16.8548 5.33136 17.0133 5.3898 17.0554C5.46418 17.1092 5.65855 17.2186 5.8673 17.0673C5.9337 17.0191 6.00895 16.9844 6.08875 16.9653C6.16854 16.9462 6.25133 16.9429 6.33238 16.9558C6.41343 16.9686 6.49115 16.9973 6.56111 17.0402C6.63107 17.0831 6.69189 17.1394 6.74011 17.2058C6.78833 17.2722 6.823 17.3474 6.84214 17.4272C6.86128 17.507 6.86452 17.5898 6.85166 17.6708C6.8388 17.7519 6.81011 17.8296 6.76722 17.8996C6.72433 17.9695 6.66808 18.0303 6.60168 18.0786C6.32333 18.2832 5.98712 18.3939 5.64168 18.3948Z" fill="#FEFFFF"/>
</svg>
