<svg width="18" height="18" viewBox="0 0 18 18" fill="none" xmlns="http://www.w3.org/2000/svg">
    <path d="M5.07195 11.6057C4.94009 11.6059 4.81161 11.564 4.70507 11.4864L0.937258 8.74918C0.870858 8.70092 0.814614 8.64005 0.771738 8.57006C0.728861 8.50006 0.700191 8.4223 0.687365 8.34122C0.674539 8.26015 0.677808 8.17734 0.696985 8.09752C0.716162 8.01771 0.750872 7.94245 0.799133 7.87605C0.847394 7.80966 0.90826 7.75341 0.978257 7.71053C1.04825 7.66766 1.12601 7.63899 1.20709 7.62616C1.28817 7.61334 1.37098 7.6166 1.45079 7.63578C1.5306 7.65496 1.60586 7.68967 1.67226 7.73793L5.44007 10.4751C5.5469 10.5527 5.6264 10.6622 5.66716 10.7878C5.70793 10.9134 5.70787 11.0487 5.66698 11.1742C5.6261 11.2998 5.5465 11.4092 5.4396 11.4867C5.3327 11.5642 5.20399 11.6059 5.07195 11.6057ZM6.57288 6.9873H1.91601C1.75025 6.9873 1.59128 6.92146 1.47407 6.80425C1.35686 6.68704 1.29101 6.52807 1.29101 6.3623C1.29101 6.19654 1.35686 6.03757 1.47407 5.92036C1.59128 5.80315 1.75025 5.7373 1.91601 5.7373H6.57288C6.73864 5.7373 6.89761 5.80315 7.01482 5.92036C7.13204 6.03757 7.19788 6.19654 7.19788 6.3623C7.19788 6.52807 7.13204 6.68704 7.01482 6.80425C6.89761 6.92146 6.73864 6.9873 6.57288 6.9873Z" fill="#FEFFFF"/>
    <path d="M1.30492 8.86863C1.17742 8.86863 1.04898 8.82988 0.937728 8.74925C0.351478 8.323 0.120228 7.59457 0.348353 6.893C0.576478 6.19082 1.1921 5.73738 1.91679 5.73738C2.08255 5.73738 2.24152 5.80323 2.35873 5.92044C2.47594 6.03765 2.54179 6.19662 2.54179 6.36238C2.54179 6.52814 2.47594 6.68711 2.35873 6.80432C2.24152 6.92153 2.08255 6.98738 1.91679 6.98738C1.65273 6.98738 1.5596 7.21113 1.53742 7.27957C1.51523 7.348 1.45929 7.58269 1.67335 7.738C1.7802 7.81564 1.85971 7.92513 1.90047 8.05076C1.94123 8.17639 1.94114 8.3117 1.90022 8.43728C1.8593 8.56285 1.77964 8.67224 1.67269 8.74973C1.56574 8.82723 1.43699 8.86885 1.30492 8.86863ZM6.57367 6.98769C6.47502 6.98761 6.37779 6.96421 6.28992 6.9194C6.20204 6.87458 6.12601 6.80962 6.06803 6.72982C6.01004 6.65002 5.97175 6.55764 5.95627 6.46022C5.9408 6.3628 5.94858 6.2631 5.97898 6.16925L7.41804 1.74019C7.46955 1.58268 7.58138 1.45201 7.72905 1.37681C7.87671 1.3016 8.04817 1.28798 8.20585 1.33894C8.36346 1.39031 8.49424 1.50212 8.56947 1.64983C8.6447 1.79754 8.65824 1.96907 8.6071 2.12675L7.16804 6.55582C7.12713 6.68126 7.04763 6.79057 6.94088 6.86813C6.83414 6.94569 6.70561 6.98754 6.57367 6.98769ZM11.4296 6.98769C11.2976 6.98763 11.1691 6.94583 11.0623 6.86825C10.9555 6.79068 10.8761 6.68131 10.8352 6.55582L9.39617 2.12675C9.35212 1.97111 9.37007 1.80447 9.44625 1.66178C9.52242 1.51908 9.6509 1.41144 9.80473 1.36143C9.95855 1.31142 10.1258 1.32294 10.2713 1.39355C10.4168 1.46417 10.5293 1.58841 10.5852 1.74019L12.0243 6.16925C12.0547 6.2631 12.0625 6.3628 12.047 6.46022C12.0315 6.55764 11.9932 6.65002 11.9352 6.72982C11.8773 6.80962 11.8012 6.87458 11.7133 6.9194C11.6255 6.96421 11.5282 6.98761 11.4296 6.98769Z" fill="#FEFFFF"/>
    <path d="M9.98959 2.55895C9.85766 2.55887 9.72914 2.51705 9.62243 2.43947C9.51572 2.3619 9.4363 2.25254 9.39553 2.12707C9.31365 1.87582 9.07209 1.85645 9.00022 1.85645C8.92865 1.85645 8.68803 1.87613 8.60615 2.12738C8.55485 2.28502 8.44303 2.41582 8.29528 2.49101C8.14754 2.5662 7.97598 2.57962 7.81834 2.52832C7.6607 2.47702 7.5299 2.36519 7.45471 2.21745C7.37952 2.06971 7.3661 1.89815 7.4174 1.74051C7.64147 1.05145 8.26303 0.606445 8.9999 0.606445C9.73803 0.606445 10.3599 1.05176 10.584 1.74082C10.6145 1.83462 10.6224 1.93433 10.607 2.03177C10.5916 2.12921 10.5534 2.22162 10.4954 2.30143C10.4374 2.38124 10.3613 2.44618 10.2734 2.49094C10.1855 2.5357 10.0882 2.55901 9.98959 2.55895ZM16.0858 6.9877H11.429C11.2632 6.9877 11.1042 6.92185 10.987 6.80464C10.8698 6.68743 10.804 6.52846 10.804 6.3627C10.804 6.19694 10.8698 6.03796 10.987 5.92075C11.1042 5.80354 11.2632 5.7377 11.429 5.7377H16.0858C16.2516 5.7377 16.4106 5.80354 16.5278 5.92075C16.645 6.03796 16.7108 6.19694 16.7108 6.3627C16.7108 6.52846 16.645 6.68743 16.5278 6.80464C16.4106 6.92185 16.2516 6.9877 16.0858 6.9877ZM12.9299 11.6061C12.7978 11.6065 12.6689 11.5649 12.5619 11.4874C12.4548 11.4099 12.3751 11.3005 12.3342 11.1748C12.2933 11.0492 12.2933 10.9138 12.3342 10.7881C12.3751 10.6625 12.4548 10.553 12.5618 10.4755L16.3296 7.73832C16.4639 7.64629 16.6288 7.61029 16.7893 7.63796C16.9498 7.66564 17.0931 7.75482 17.1888 7.88653C17.2846 8.01825 17.3251 8.18211 17.3019 8.34328C17.2787 8.50445 17.1936 8.65021 17.0646 8.74957L13.2968 11.4868C13.1902 11.5644 13.0618 11.6062 12.9299 11.6061Z" fill="#FEFFFF"/>
    <path d="M16.6966 8.86922C16.5646 8.86942 16.4359 8.82778 16.329 8.75028C16.2221 8.67278 16.1425 8.56339 16.1016 8.43783C16.0608 8.31228 16.0608 8.177 16.1016 8.05143C16.1424 7.92586 16.2219 7.81645 16.3288 7.73891C16.5426 7.58359 16.4863 7.34766 16.4641 7.27891C16.4419 7.21078 16.3491 6.98828 16.0851 6.98828C15.9193 6.98828 15.7603 6.92243 15.6431 6.80522C15.5259 6.68801 15.4601 6.52904 15.4601 6.36328C15.4601 6.19752 15.5259 6.03855 15.6431 5.92134C15.7603 5.80413 15.9193 5.73828 16.0851 5.73828C16.8094 5.73828 17.4251 6.19141 17.6529 6.89266C17.881 7.59516 17.6498 8.32422 17.0638 8.75016C16.9571 8.82763 16.8285 8.86931 16.6966 8.86922ZM14.3676 16.0358C14.2356 16.0357 14.1071 15.9939 14.0004 15.9163C13.8937 15.8387 13.8143 15.7294 13.7735 15.6039L12.3341 11.1745C12.285 11.0175 12.2998 10.8473 12.3753 10.7011C12.4508 10.5549 12.5809 10.4443 12.7375 10.3935C12.894 10.3426 13.0643 10.3555 13.2113 10.4295C13.3584 10.5034 13.4703 10.6323 13.5229 10.7883L14.9619 15.2173C14.9926 15.3112 15.0005 15.4109 14.9851 15.5084C14.9698 15.6059 14.9315 15.6983 14.8735 15.7782C14.8155 15.858 14.7394 15.923 14.6515 15.9678C14.5636 16.0126 14.4663 16.0359 14.3676 16.0358ZM12.7669 17.1983C12.6351 17.1984 12.5066 17.1566 12.4001 17.0789L8.63257 14.3414C8.56617 14.2931 8.50993 14.2323 8.46705 14.1623C8.42417 14.0923 8.3955 14.0145 8.38268 13.9335C8.36985 13.8524 8.37312 13.7696 8.3923 13.6898C8.41147 13.6099 8.44618 13.5347 8.49445 13.4683C8.54271 13.4019 8.60357 13.3456 8.67357 13.3028C8.74357 13.2599 8.82132 13.2312 8.9024 13.2184C8.98348 13.2056 9.06629 13.2088 9.1461 13.228C9.22592 13.2472 9.30117 13.2819 9.36757 13.3302L13.1351 16.0677C13.2419 16.1453 13.3214 16.2547 13.3622 16.3803C13.4029 16.5059 13.4029 16.6412 13.362 16.7668C13.3211 16.8923 13.2415 17.0017 13.1346 17.0792C13.0277 17.1568 12.899 17.1984 12.7669 17.1983Z" fill="#FEFFFF"/>
    <path d="M13.3601 17.394C13.015 17.3933 12.6791 17.2827 12.401 17.0783C12.3329 17.0308 12.2749 16.9702 12.2304 16.9C12.186 16.8298 12.156 16.7514 12.1422 16.6695C12.1284 16.5876 12.1311 16.5037 12.1501 16.4229C12.1691 16.342 12.204 16.2657 12.2528 16.1985C12.3017 16.1313 12.3634 16.0744 12.4344 16.0314C12.5054 15.9883 12.5844 15.9598 12.6665 15.9475C12.7487 15.9353 12.8325 15.9396 12.913 15.9601C12.9935 15.9806 13.0691 16.017 13.1354 16.0671C13.3494 16.2224 13.5569 16.0962 13.6154 16.0537C13.6894 15.9996 13.8535 15.848 13.7741 15.6033C13.7229 15.4457 13.7365 15.2741 13.8118 15.1264C13.8871 14.9787 14.018 14.867 14.1757 14.8158C14.3334 14.7647 14.5049 14.7782 14.6526 14.8535C14.8003 14.9288 14.912 15.0597 14.9632 15.2174C15.1869 15.9068 14.9463 16.6321 14.3504 17.0652C14.0634 17.2769 13.7166 17.392 13.3601 17.394ZM5.23381 17.1977C5.10176 17.1979 4.97306 17.1562 4.86616 17.0787C4.75926 17.0012 4.67966 16.8918 4.63878 16.7662C4.59789 16.6407 4.59783 16.5054 4.6386 16.3798C4.67936 16.2542 4.75886 16.1447 4.86569 16.0671L8.63319 13.3296C8.76752 13.2376 8.93244 13.2016 9.0929 13.2292C9.25336 13.2569 9.3967 13.3461 9.49243 13.4778C9.58817 13.6095 9.62875 13.7734 9.60554 13.9346C9.58234 14.0957 9.49719 14.2415 9.36819 14.3408L5.60069 17.0783C5.49414 17.156 5.36567 17.1978 5.23381 17.1977ZM3.63319 16.0352C3.5345 16.0353 3.4372 16.012 3.34925 15.9672C3.2613 15.9224 3.18521 15.8575 3.12719 15.7776C3.06918 15.6978 3.0309 15.6053 3.01548 15.5079C3.00007 15.4104 3.00796 15.3106 3.0385 15.2168L4.47756 10.7877C4.53012 10.6318 4.64208 10.5028 4.78913 10.4289C4.93618 10.355 5.10645 10.342 5.26298 10.3929C5.41951 10.4438 5.54966 10.5543 5.62517 10.7005C5.70069 10.8468 5.71547 11.0169 5.66631 11.174L4.22725 15.603C4.18658 15.7286 4.10719 15.838 4.00047 15.9157C3.89374 15.9933 3.76517 16.0352 3.63319 16.0352Z" fill="#FEFFFF"/>
    <path d="M4.64168 17.3948C4.28624 17.3929 3.94061 17.278 3.6548 17.0667C3.05699 16.6323 2.81543 15.9064 3.03949 15.2173C3.09409 15.064 3.20635 14.9379 3.3524 14.866C3.49845 14.7942 3.66678 14.782 3.82162 14.8323C3.97645 14.8826 4.10559 14.9912 4.18158 15.1352C4.25757 15.2791 4.27442 15.4471 4.22855 15.6033C4.14668 15.8548 4.33136 16.0133 4.3898 16.0554C4.46418 16.1092 4.65855 16.2186 4.8673 16.0673C4.9337 16.0191 5.00895 15.9844 5.08875 15.9653C5.16854 15.9462 5.25133 15.9429 5.33238 15.9558C5.41343 15.9686 5.49115 15.9973 5.56111 16.0402C5.63107 16.0831 5.69189 16.1394 5.74011 16.2058C5.78833 16.2722 5.823 16.3474 5.84214 16.4272C5.86128 16.507 5.86452 16.5898 5.85166 16.6708C5.8388 16.7519 5.81011 16.8296 5.76722 16.8996C5.72433 16.9695 5.66808 17.0303 5.60168 17.0786C5.32333 17.2832 4.98712 17.3939 4.64168 17.3948Z" fill="#FEFFFF"/>
</svg>
