<svg width="11" height="11" viewBox="0 0 11 11" fill="none" xmlns="http://www.w3.org/2000/svg">
    <path d="M8.46978 6.70778L6.8159 5.99898C6.72955 5.96181 6.63527 5.94684 6.54165 5.95544C6.44803 5.96404 6.35806 5.99594 6.27992 6.04822L5.39563 6.63768C4.85518 6.37482 4.41776 5.93933 4.15251 5.40004L4.15258 5.39997L4.73997 4.50244C4.7911 4.42453 4.82212 4.33515 4.83025 4.24231C4.83839 4.14947 4.82339 4.05606 4.78659 3.97044L4.07713 2.31514C4.02884 2.20278 3.94545 2.10909 3.83945 2.04809C3.73345 1.98708 3.61054 1.96206 3.48912 1.97676C3.01203 2.0381 2.57358 2.27104 2.25569 2.63205C1.9378 2.99306 1.76221 3.45745 1.76172 3.93847C1.76172 6.74223 4.04272 9.02322 6.84648 9.02322C7.32751 9.02274 7.79191 8.84714 8.15292 8.52924C8.51394 8.21135 8.74687 7.77289 8.8082 7.29579C8.82286 7.17438 8.79782 7.05148 8.73681 6.94549C8.67581 6.83949 8.58213 6.7561 8.46978 6.70778Z" fill="white"/>
</svg>
