<svg width="20" height="20" viewBox="0 0 20 20" fill="none" xmlns="http://www.w3.org/2000/svg">
    <path d="M1.66797 18.333C1.66797 16.5649 2.37035 14.8692 3.62059 13.619C4.87083 12.3687 6.56653 11.6663 8.33464 11.6663C10.1027 11.6663 11.7984 12.3687 13.0487 13.619C14.2989 14.8692 15.0013 16.5649 15.0013 18.333H13.3346C13.3346 17.0069 12.8079 15.7352 11.8702 14.7975C10.9325 13.8598 9.66072 13.333 8.33464 13.333C7.00855 13.333 5.73678 13.8598 4.7991 14.7975C3.86142 15.7352 3.33464 17.0069 3.33464 18.333H1.66797ZM8.33464 10.833C5.57214 10.833 3.33464 8.59551 3.33464 5.83301C3.33464 3.07051 5.57214 0.833008 8.33464 0.833008C11.0971 0.833008 13.3346 3.07051 13.3346 5.83301C13.3346 8.59551 11.0971 10.833 8.33464 10.833ZM8.33464 9.16634C10.1763 9.16634 11.668 7.67467 11.668 5.83301C11.668 3.99134 10.1763 2.49967 8.33464 2.49967C6.49297 2.49967 5.0013 3.99134 5.0013 5.83301C5.0013 7.67467 6.49297 9.16634 8.33464 9.16634ZM15.238 12.2522C16.4091 12.7796 17.403 13.634 18.1001 14.7128C18.7973 15.7915 19.1681 17.0486 19.168 18.333H17.5013C17.5015 17.3697 17.2234 16.4268 16.7005 15.6177C16.1777 14.8086 15.4322 14.1677 14.5538 13.7722L15.238 12.2522ZM14.6646 2.84384C15.5042 3.18992 16.2221 3.77762 16.7271 4.53237C17.2322 5.28711 17.5016 6.17487 17.5013 7.08301C17.5017 8.22662 17.0744 9.32903 16.3034 10.1737C15.5325 11.0184 14.4735 11.5442 13.3346 11.648V9.97051C13.9521 9.88207 14.5249 9.59802 14.9691 9.16006C15.4132 8.72209 15.7052 8.15328 15.8023 7.53712C15.8993 6.92096 15.7963 6.28992 15.5083 5.73664C15.2203 5.18335 14.7625 4.73696 14.2021 4.46301L14.6646 2.84384Z" fill="white"/>
</svg>
