<svg width="18" height="18" viewBox="0 0 18 18" fill="none" xmlns="http://www.w3.org/2000/svg">
    <path d="M12.4246 0C11.6822 0 11.0509 0.629438 10.8266 1.50037L4.97967 4.59396H2.11901C0.95059 4.59396 0 5.83371 0 7.35761V9.20158C0 10.7254 0.95059 11.9652 2.11901 11.9652H2.44259V15.9072C2.44259 17.0612 3.16245 18 4.04726 18C4.93204 18 5.65189 17.0612 5.65189 15.9072V12.3209L10.877 15.0855C11.1361 15.8659 11.7321 16.4136 12.4246 16.4136C13.3541 16.4136 14.1102 15.4274 14.1102 14.2152V2.19835C14.1102 0.986201 13.3541 0 12.4246 0ZM5.65189 5.82166L10.739 3.13009V13.4291L5.65189 10.7375V5.82166ZM1.125 9.20154V7.35761C1.125 6.6428 1.57092 6.06123 2.11901 6.06123H4.52689V10.498H2.11901C1.57092 10.4979 1.125 9.91639 1.125 9.20154ZM4.04726 16.5327C3.78278 16.5327 3.56762 16.2521 3.56762 15.9071V11.9651H4.52693V15.9071C4.52689 16.2521 4.31174 16.5327 4.04726 16.5327ZM12.9852 14.2152C12.9852 14.6183 12.7337 14.9463 12.4246 14.9463C12.1155 14.9463 11.864 14.6183 11.864 14.2152V2.19835C11.864 1.79524 12.1155 1.46722 12.4246 1.46722C12.7337 1.46722 12.9852 1.79519 12.9852 2.19835V14.2152H12.9852ZM18 8.20676C18 8.6119 17.7481 8.94037 17.4375 8.94037H16.0443C15.7337 8.94037 15.4818 8.6119 15.4818 8.20676C15.4818 7.80162 15.7337 7.47315 16.0443 7.47315H17.4375C17.7481 7.47315 18 7.80162 18 8.20676ZM14.9217 5.48085C14.7664 5.12995 14.8586 4.6813 15.1276 4.47874L16.3342 3.57025C16.6032 3.36759 16.9472 3.4879 17.1025 3.83875C17.2579 4.1896 17.1657 4.6383 16.8967 4.84086L15.6901 5.74935C15.6048 5.81381 15.508 5.84775 15.4094 5.84774C15.215 5.84774 15.0259 5.7162 14.9217 5.48085ZM17.1026 12.5748C16.9984 12.8102 16.8093 12.9417 16.6149 12.9417C16.5195 12.9417 16.4228 12.91 16.3342 12.8433L15.1276 11.9348C14.8586 11.7322 14.7664 11.2835 14.9218 10.9327C15.0771 10.5818 15.4211 10.4616 15.6901 10.6642L16.8967 11.5727C17.1657 11.7753 17.2579 12.2239 17.1026 12.5748Z" fill="#FEFFFF"/>
</svg>
