<svg width="16" height="20" viewBox="0 0 16 20" fill="none" xmlns="http://www.w3.org/2000/svg">
    <path d="M13.75 0C14.0455 0 14.3381 0.058198 14.611 0.171271C14.884 0.284344 15.1321 0.450078 15.341 0.65901C15.5499 0.867941 15.7157 1.11598 15.8287 1.38896C15.9418 1.66194 16 1.95453 16 2.25V17.755C16 18.0505 15.9418 18.3431 15.8287 18.616C15.7157 18.889 15.5499 19.1371 15.341 19.346C15.1321 19.5549 14.884 19.7207 14.611 19.8337C14.3381 19.9468 14.0455 20.005 13.75 20.005H2.25C1.95453 20.005 1.66194 19.9468 1.38896 19.8337C1.11598 19.7207 0.867942 19.5549 0.65901 19.346C0.450078 19.1371 0.284344 18.889 0.171271 18.616C0.0581978 18.3431 1.69987e-08 18.0505 1.69987e-08 17.755V2.25C-7.00219e-05 1.67987 0.216295 1.13098 0.605369 0.714247C0.994443 0.297514 1.52721 0.0440221 2.096 0.00500011L2.25 0H13.75ZM14.5 14H1.5V17.755C1.5 18.169 1.836 18.505 2.25 18.505H13.75C13.9489 18.505 14.1397 18.426 14.2803 18.2853C14.421 18.1447 14.5 17.9539 14.5 17.755V14ZM3.751 15.5H12.25C12.44 15.5001 12.6229 15.5722 12.7618 15.702C12.9006 15.8317 12.9851 16.0093 12.998 16.1989C13.011 16.3885 12.9515 16.5759 12.8316 16.7233C12.7117 16.8707 12.5402 16.9671 12.352 16.993L12.25 17H3.751C3.56106 16.9997 3.37832 16.9273 3.23966 16.7975C3.101 16.6677 3.01675 16.4901 3.00393 16.3006C2.99111 16.1111 3.05067 15.9238 3.17059 15.7765C3.2905 15.6292 3.46183 15.5329 3.65 15.507L3.751 15.5ZM13.75 1.5H2.25L2.148 1.507C1.96845 1.53165 1.80389 1.62048 1.68477 1.75707C1.56564 1.89366 1.50001 2.06876 1.5 2.25V12.5H4V10.246C4 9.598 4.492 9.066 5.122 9.002L5.25 8.995H10.75C11.397 8.995 11.93 9.487 11.993 10.118L12 10.245V12.5H14.5V2.25C14.5 2.05109 14.421 1.86032 14.2803 1.71967C14.1397 1.57902 13.9489 1.5 13.75 1.5ZM8 2.996C8.66304 2.996 9.29893 3.25939 9.76777 3.72823C10.2366 4.19707 10.5 4.83296 10.5 5.496C10.5 6.15904 10.2366 6.79493 9.76777 7.26377C9.29893 7.73261 8.66304 7.996 8 7.996C7.33696 7.996 6.70107 7.73261 6.23223 7.26377C5.76339 6.79493 5.5 6.15904 5.5 5.496C5.5 4.83296 5.76339 4.19707 6.23223 3.72823C6.70107 3.25939 7.33696 2.996 8 2.996Z" fill="white"/>
</svg>
